<svg width="237" height="130" viewBox="0 0 237 130" fill="none" xmlns="http://www.w3.org/2000/svg">
<g clip-path="url(#clip0)">
<rect width="237" height="130" fill="#1C66AB" fill-opacity="0.05"/>
<rect opacity="0.1" x="34" y="30" width="50" height="50" fill="#677A9E"/>
<circle opacity="0.12" cx="59" cy="55" r="15" fill="#677A9E"/>
<path d="M57 61C54.8667 60.64 53 58.96 53 57.04V53.92L57 57.16V61ZM59.6667 58.36V55C63.2667 54.4 63.5333 50.8 62.4667 49L60.6 50.8L59 49L57.5333 50.8L55.6667 49C54.6 50.8 54.6 54.4 58.3333 55V61H60.3333C62.7333 61 65 59.2 65 57.04V53.92L59.6667 58.36Z" fill="#677A9E"/>
<rect opacity="0.9" x="34" y="30" width="50" height="50" fill="white"/>
<rect x="44" y="56" width="30" height="2" fill="#677A9E"/>
<rect x="44" y="61" width="30" height="2" fill="#677A9E"/>
<rect x="44" y="66" width="12" height="4" fill="#677A9E"/>
<rect opacity="0.1" x="94" y="30" width="50" height="50" fill="#677A9E"/>
<circle opacity="0.12" cx="119" cy="55" r="15" fill="#677A9E"/>
<path d="M123.083 49.1667C124.048 49.1667 124.833 49.9518 124.833 50.9167V59.0833C124.833 60.0482 124.048 60.8333 123.083 60.8333H114.917C113.952 60.8333 113.167 60.0482 113.167 59.0833V50.9167C113.167 49.9518 113.952 49.1667 114.917 49.1667H123.083ZM123.083 48H114.917C113.306 48 112 49.3061 112 50.9167V59.0833C112 60.6939 113.306 62 114.917 62H123.083C124.694 62 126 60.6939 126 59.0833V50.9167C126 49.3061 124.694 48 123.083 48ZM119 51.5C117.067 51.5 115.5 53.0674 115.5 55C115.5 56.9326 117.067 58.5 119 58.5C120.933 58.5 122.5 56.9326 122.5 55C122.5 53.0674 120.933 51.5 119 51.5ZM119 57.3333C117.713 57.3333 116.667 56.2868 116.667 55C116.667 53.7132 117.713 52.6667 119 52.6667C120.286 52.6667 121.333 53.7132 121.333 55C121.333 56.2868 120.286 57.3333 119 57.3333ZM123.083 51.5C122.761 51.5 122.5 51.2387 122.5 50.9167C122.5 50.5947 122.761 50.3333 123.083 50.3333C123.406 50.3333 123.667 50.5947 123.667 50.9167C123.667 51.2387 123.406 51.5 123.083 51.5Z" fill="#677A9E"/>
<rect opacity="0.1" x="154" y="30" width="50" height="50" fill="#677A9E"/>
<circle opacity="0.12" cx="179" cy="55" r="15" fill="#677A9E"/>
<path d="M183.083 49.1667C184.048 49.1667 184.833 49.9518 184.833 50.9167V59.0833C184.833 60.0482 184.048 60.8333 183.083 60.8333H174.917C173.952 60.8333 173.167 60.0482 173.167 59.0833V50.9167C173.167 49.9518 173.952 49.1667 174.917 49.1667H183.083ZM183.083 48H174.917C173.306 48 172 49.3061 172 50.9167V59.0833C172 60.6939 173.306 62 174.917 62H183.083C184.694 62 186 60.6939 186 59.0833V50.9167C186 49.3061 184.694 48 183.083 48ZM179 51.5C177.067 51.5 175.5 53.0674 175.5 55C175.5 56.9326 177.067 58.5 179 58.5C180.933 58.5 182.5 56.9326 182.5 55C182.5 53.0674 180.933 51.5 179 51.5ZM179 57.3333C177.713 57.3333 176.667 56.2868 176.667 55C176.667 53.7132 177.713 52.6667 179 52.6667C180.286 52.6667 181.333 53.7132 181.333 55C181.333 56.2868 180.286 57.3333 179 57.3333ZM183.083 51.5C182.761 51.5 182.5 51.2387 182.5 50.9167C182.5 50.5947 182.761 50.3333 183.083 50.3333C183.406 50.3333 183.667 50.5947 183.667 50.9167C183.667 51.2387 183.406 51.5 183.083 51.5Z" fill="#677A9E"/>
<rect opacity="0.1" x="94" y="90" width="50" height="50" fill="#677A9E"/>
<circle opacity="0.12" cx="119" cy="115" r="15" fill="#677A9E"/>
<path d="M123.083 109.167C124.048 109.167 124.833 109.952 124.833 110.917V119.083C124.833 120.048 124.048 120.833 123.083 120.833H114.917C113.952 120.833 113.167 120.048 113.167 119.083V110.917C113.167 109.952 113.952 109.167 114.917 109.167H123.083ZM123.083 108H114.917C113.306 108 112 109.306 112 110.917V119.083C112 120.694 113.306 122 114.917 122H123.083C124.694 122 126 120.694 126 119.083V110.917C126 109.306 124.694 108 123.083 108ZM119 111.5C117.067 111.5 115.5 113.067 115.5 115C115.5 116.933 117.067 118.5 119 118.5C120.933 118.5 122.5 116.933 122.5 115C122.5 113.067 120.933 111.5 119 111.5ZM119 117.333C117.713 117.333 116.667 116.287 116.667 115C116.667 113.713 117.713 112.667 119 112.667C120.286 112.667 121.333 113.713 121.333 115C121.333 116.287 120.286 117.333 119 117.333ZM123.083 111.5C122.761 111.5 122.5 111.239 122.5 110.917C122.5 110.595 122.761 110.333 123.083 110.333C123.406 110.333 123.667 110.595 123.667 110.917C123.667 111.239 123.406 111.5 123.083 111.5Z" fill="#677A9E"/>
<rect opacity="0.1" x="34" y="90" width="50" height="50" fill="#677A9E"/>
<circle opacity="0.12" cx="59" cy="115" r="15" fill="#677A9E"/>
<path d="M63.0833 109.167C64.0482 109.167 64.8333 109.952 64.8333 110.917V119.083C64.8333 120.048 64.0482 120.833 63.0833 120.833H54.9167C53.9518 120.833 53.1667 120.048 53.1667 119.083V110.917C53.1667 109.952 53.9518 109.167 54.9167 109.167H63.0833ZM63.0833 108H54.9167C53.3061 108 52 109.306 52 110.917V119.083C52 120.694 53.3061 122 54.9167 122H63.0833C64.6945 122 66 120.694 66 119.083V110.917C66 109.306 64.6945 108 63.0833 108ZM59 111.5C57.0674 111.5 55.5 113.067 55.5 115C55.5 116.933 57.0674 118.5 59 118.5C60.9326 118.5 62.5 116.933 62.5 115C62.5 113.067 60.9326 111.5 59 111.5ZM59 117.333C57.7132 117.333 56.6667 116.287 56.6667 115C56.6667 113.713 57.7132 112.667 59 112.667C60.2862 112.667 61.3333 113.713 61.3333 115C61.3333 116.287 60.2862 117.333 59 117.333ZM63.0833 111.5C62.7607 111.5 62.5 111.239 62.5 110.917C62.5 110.595 62.7607 110.333 63.0833 110.333C63.4059 110.333 63.6667 110.595 63.6667 110.917C63.6667 111.239 63.4059 111.5 63.0833 111.5Z" fill="#677A9E"/>
<rect opacity="0.1" x="154" y="90" width="50" height="50" fill="#677A9E"/>
<circle opacity="0.12" cx="179" cy="115" r="15" fill="#677A9E"/>
<path d="M183.083 109.167C184.048 109.167 184.833 109.952 184.833 110.917V119.083C184.833 120.048 184.048 120.833 183.083 120.833H174.917C173.952 120.833 173.167 120.048 173.167 119.083V110.917C173.167 109.952 173.952 109.167 174.917 109.167H183.083ZM183.083 108H174.917C173.306 108 172 109.306 172 110.917V119.083C172 120.694 173.306 122 174.917 122H183.083C184.694 122 186 120.694 186 119.083V110.917C186 109.306 184.694 108 183.083 108ZM179 111.5C177.067 111.5 175.5 113.067 175.5 115C175.5 116.933 177.067 118.5 179 118.5C180.933 118.5 182.5 116.933 182.5 115C182.5 113.067 180.933 111.5 179 111.5ZM179 117.333C177.713 117.333 176.667 116.287 176.667 115C176.667 113.713 177.713 112.667 179 112.667C180.286 112.667 181.333 113.713 181.333 115C181.333 116.287 180.286 117.333 179 117.333ZM183.083 111.5C182.761 111.5 182.5 111.239 182.5 110.917C182.5 110.595 182.761 110.333 183.083 110.333C183.406 110.333 183.667 110.595 183.667 110.917C183.667 111.239 183.406 111.5 183.083 111.5Z" fill="#677A9E"/>
<rect opacity="0.1" width="237" height="20" fill="#677A9E"/>
<rect x="46" y="9" width="12" height="2" fill="white"/>
<rect x="64" y="9" width="12" height="2" fill="white"/>
<rect x="82" y="9" width="12" height="2" fill="white"/>
<rect x="144" y="9" width="12" height="2" fill="white"/>
<rect x="162" y="9" width="12" height="2" fill="white"/>
<rect x="180" y="9" width="12" height="2" fill="white"/>
<rect x="10" y="9" width="6" height="2" fill="white"/>
<rect x="221" y="9" width="6" height="2" fill="white"/>
<rect x="109" y="8" width="20" height="4" fill="white"/>
</g>
<defs>
<clipPath id="clip0">
<rect width="237" height="130" fill="white"/>
</clipPath>
</defs>
</svg>
