<svg width="237" height="130" viewBox="0 0 237 130" fill="none" xmlns="http://www.w3.org/2000/svg">
<rect width="237" height="130" fill="#1C66AB" fill-opacity="0.05"/>
<rect x="54" y="33" width="30" height="2" fill="#677A9E"/>
<rect x="54" y="38" width="30" height="2" fill="#677A9E"/>
<rect x="54" y="43" width="12" height="4" fill="#677A9E"/>
<rect x="104" y="33" width="30" height="2" fill="#677A9E"/>
<rect x="104" y="38" width="30" height="2" fill="#677A9E"/>
<rect x="104" y="43" width="12" height="4" fill="#677A9E"/>
<rect x="154" y="33" width="30" height="2" fill="#677A9E"/>
<rect x="154" y="38" width="30" height="2" fill="#677A9E"/>
<rect x="154" y="43" width="12" height="4" fill="#677A9E"/>
<rect x="54" y="67" width="30" height="2" fill="#677A9E"/>
<rect x="54" y="72" width="30" height="2" fill="#677A9E"/>
<rect x="54" y="77" width="12" height="4" fill="#677A9E"/>
<rect x="104" y="67" width="30" height="2" fill="#677A9E"/>
<rect x="104" y="72" width="30" height="2" fill="#677A9E"/>
<rect x="104" y="77" width="12" height="4" fill="#677A9E"/>
<rect x="154" y="67" width="30" height="2" fill="#677A9E"/>
<rect x="154" y="72" width="30" height="2" fill="#677A9E"/>
<rect x="154" y="77" width="12" height="4" fill="#677A9E"/>
<rect x="54" y="101" width="30" height="2" fill="#677A9E"/>
<rect x="54" y="106" width="30" height="2" fill="#677A9E"/>
<rect x="54" y="111" width="12" height="4" fill="#677A9E"/>
<rect x="104" y="101" width="30" height="2" fill="#677A9E"/>
<rect x="104" y="106" width="30" height="2" fill="#677A9E"/>
<rect x="104" y="111" width="12" height="4" fill="#677A9E"/>
<rect x="154" y="101" width="30" height="2" fill="#677A9E"/>
<rect x="154" y="106" width="30" height="2" fill="#677A9E"/>
<rect x="154" y="111" width="12" height="4" fill="#677A9E"/>
<rect opacity="0.1" width="237" height="20" fill="#677A9E"/>
<rect x="46" y="9" width="12" height="2" fill="white"/>
<rect x="64" y="9" width="12" height="2" fill="white"/>
<rect x="82" y="9" width="12" height="2" fill="white"/>
<rect x="144" y="9" width="12" height="2" fill="white"/>
<rect x="162" y="9" width="12" height="2" fill="white"/>
<rect x="180" y="9" width="12" height="2" fill="white"/>
<rect x="10" y="9" width="6" height="2" fill="white"/>
<rect x="221" y="9" width="6" height="2" fill="white"/>
<rect x="109" y="8" width="20" height="4" fill="white"/>
</svg>
