<svg width="237" height="130" viewBox="0 0 237 130" fill="none" xmlns="http://www.w3.org/2000/svg">
<rect width="237" height="130" fill="#1C66AB" fill-opacity="0.05"/>
<path d="M86.1072 52.8V66.768H92.3352C92.7312 65.976 93.6672 65.04 95.5032 65.04C97.7712 65.04 99.4272 66.588 99.4272 69.252C99.4272 72.312 97.6272 74.256 94.6752 74.256C91.6512 74.256 89.9952 72.312 89.9952 69.432V69.072H85.2432V69.72C85.2432 75.048 89.1312 78.504 94.8192 78.504C100.399 78.504 104.179 74.724 104.179 69.036C104.179 63.996 100.651 61.008 96.7272 61.008C93.3432 61.008 91.9752 62.7 91.2912 63.672H90.8592V57.12H103.243V52.8H86.1072ZM124.568 69.72C124.568 64.932 121.148 61.512 116.576 61.512C113.192 61.512 111.788 63.024 111.176 63.888H110.744V61.008C110.744 58.128 112.436 56.544 115.424 56.544C118.16 56.544 119.528 58.128 119.528 60.288H124.352C124.352 55.248 120.644 52.296 115.424 52.296C110.06 52.296 105.992 55.356 105.992 61.296V70.116C105.992 75.048 109.916 78.54 115.208 78.468C120.68 78.396 124.568 74.94 124.568 69.72ZM115.28 65.22C117.98 65.22 119.816 66.984 119.816 69.72C119.816 72.456 117.908 74.22 115.28 74.22C112.652 74.22 110.744 72.528 110.744 69.72C110.744 66.984 112.58 65.22 115.28 65.22ZM140.063 61.368L142.367 63.096L149.675 54.96L145.967 52.188L140.063 61.368ZM126.599 58.056V58.74C126.599 62.268 128.795 64.392 132.503 64.392C136.211 64.392 138.407 62.268 138.407 58.74V58.056C138.407 54.528 136.103 52.368 132.503 52.368C128.795 52.368 126.599 54.528 126.599 58.056ZM130.343 57.876C130.343 56.4 131.063 55.464 132.503 55.464C133.943 55.464 134.663 56.4 134.663 57.876V58.884C134.663 60.36 133.943 61.296 132.503 61.296C131.063 61.296 130.343 60.36 130.343 58.884V57.876ZM139.451 72.096V72.78C139.451 76.308 141.647 78.432 145.355 78.432C149.063 78.432 151.259 76.308 151.259 72.78V72.096C151.259 68.568 148.955 66.408 145.355 66.408C141.647 66.408 139.451 68.568 139.451 72.096ZM137.615 69.36L135.311 67.632L128.003 75.768L131.711 78.54L137.615 69.36ZM143.195 71.916C143.195 70.44 143.915 69.504 145.355 69.504C146.795 69.504 147.515 70.44 147.515 71.916V72.924C147.515 74.4 146.795 75.336 145.355 75.336C143.915 75.336 143.195 74.4 143.195 72.924V71.916Z" fill="#677A9E"/>
</svg>
