<svg width="237" height="130" viewBox="0 0 237 130" fill="none" xmlns="http://www.w3.org/2000/svg">
<rect width="237" height="130" fill="#1C66AB" fill-opacity="0.05"/>
<path d="M101 76C103.761 76 106 73.7614 106 71C106 68.2386 103.761 66 101 66C98.2386 66 96 68.2386 96 71C96 73.7614 98.2386 76 101 76Z" fill="#677A9E"/>
<path opacity="0.6" d="M119 70C121.761 70 124 67.7614 124 65C124 62.2386 121.761 60 119 60C116.239 60 114 62.2386 114 65C114 67.7614 116.239 70 119 70Z" fill="#677A9E"/>
<path opacity="0.3" d="M137 64C139.761 64 142 61.7614 142 59C142 56.2386 139.761 54 137 54C134.239 54 132 56.2386 132 59C132 61.7614 134.239 64 137 64Z" fill="#677A9E"/>
</svg>
