<svg width="237" height="130" viewBox="0 0 237 130" fill="none" xmlns="http://www.w3.org/2000/svg">
<rect width="237" height="130" fill="#1C66AB" fill-opacity="0.05"/>
<path d="M101 70C103.761 70 106 67.7614 106 65C106 62.2386 103.761 60 101 60C98.2386 60 96 62.2386 96 65C96 67.7614 98.2386 70 101 70Z" fill="#677A9E"/>
<path opacity="0.6" d="M119 70C121.761 70 124 67.7614 124 65C124 62.2386 121.761 60 119 60C116.239 60 114 62.2386 114 65C114 67.7614 116.239 70 119 70Z" fill="#677A9E"/>
<path opacity="0.3" d="M137 70C139.761 70 142 67.7614 142 65C142 62.2386 139.761 60 137 60C134.239 60 132 62.2386 132 65C132 67.7614 134.239 70 137 70Z" fill="#677A9E"/>
</svg>
