<svg width="237" height="130" viewBox="0 0 237 130" fill="none" xmlns="http://www.w3.org/2000/svg">
<rect width="237" height="130" fill="#1C66AB" fill-opacity="0.05"/>
<path opacity="0.1" d="M0 0H78V130H0V0Z" fill="#677A9E"/>
<rect x="24" y="106" width="30" height="2" fill="#677A9E"/>
<rect x="24" y="111" width="30" height="2" fill="#677A9E"/>
<rect x="24" y="116" width="12" height="4" fill="#677A9E"/>
<circle opacity="0.12" cx="39" cy="65" r="22" fill="#677A9E"/>
<path d="M45.4167 55.8333C46.9328 55.8333 48.1667 57.0672 48.1667 58.5833V71.4167C48.1667 72.9328 46.9328 74.1667 45.4167 74.1667H32.5833C31.0672 74.1667 29.8333 72.9328 29.8333 71.4167V58.5833C29.8333 57.0672 31.0672 55.8333 32.5833 55.8333H45.4167ZM45.4167 54H32.5833C30.0524 54 28 56.0524 28 58.5833V71.4167C28 73.9476 30.0524 76 32.5833 76H45.4167C47.9485 76 50 73.9476 50 71.4167V58.5833C50 56.0524 47.9485 54 45.4167 54ZM39 59.5C35.9631 59.5 33.5 61.9631 33.5 65C33.5 68.0369 35.9631 70.5 39 70.5C42.0369 70.5 44.5 68.0369 44.5 65C44.5 61.9631 42.0369 59.5 39 59.5ZM39 68.6667C36.9778 68.6667 35.3333 67.0222 35.3333 65C35.3333 62.9778 36.9778 61.3333 39 61.3333C41.0213 61.3333 42.6667 62.9778 42.6667 65C42.6667 67.0222 41.0213 68.6667 39 68.6667ZM45.4167 59.5C44.9098 59.5 44.5 59.0893 44.5 58.5833C44.5 58.0773 44.9098 57.6667 45.4167 57.6667C45.9236 57.6667 46.3333 58.0773 46.3333 58.5833C46.3333 59.0893 45.9236 59.5 45.4167 59.5Z" fill="#677A9E"/>
<rect opacity="0.1" x="158" width="79" height="130" fill="#677A9E"/>
<rect x="183" y="106" width="30" height="2" fill="#677A9E"/>
<rect x="183" y="111" width="30" height="2" fill="#677A9E"/>
<rect x="183" y="116" width="12" height="4" fill="#677A9E"/>
<circle opacity="0.12" cx="198" cy="65" r="22" fill="#677A9E"/>
<path d="M204.417 55.8333C205.933 55.8333 207.167 57.0672 207.167 58.5833V71.4167C207.167 72.9328 205.933 74.1667 204.417 74.1667H191.583C190.067 74.1667 188.833 72.9328 188.833 71.4167V58.5833C188.833 57.0672 190.067 55.8333 191.583 55.8333H204.417ZM204.417 54H191.583C189.052 54 187 56.0524 187 58.5833V71.4167C187 73.9476 189.052 76 191.583 76H204.417C206.949 76 209 73.9476 209 71.4167V58.5833C209 56.0524 206.949 54 204.417 54ZM198 59.5C194.963 59.5 192.5 61.9631 192.5 65C192.5 68.0369 194.963 70.5 198 70.5C201.037 70.5 203.5 68.0369 203.5 65C203.5 61.9631 201.037 59.5 198 59.5ZM198 68.6667C195.978 68.6667 194.333 67.0222 194.333 65C194.333 62.9778 195.978 61.3333 198 61.3333C200.021 61.3333 201.667 62.9778 201.667 65C201.667 67.0222 200.021 68.6667 198 68.6667ZM204.417 59.5C203.91 59.5 203.5 59.0893 203.5 58.5833C203.5 58.0773 203.91 57.6667 204.417 57.6667C204.924 57.6667 205.333 58.0773 205.333 58.5833C205.333 59.0893 204.924 59.5 204.417 59.5Z" fill="#677A9E"/>
<rect opacity="0.1" x="79" width="78" height="130" fill="#677A9E"/>
<rect x="103" y="106" width="30" height="2" fill="#677A9E"/>
<rect x="103" y="111" width="30" height="2" fill="#677A9E"/>
<rect x="103" y="116" width="12" height="4" fill="#677A9E"/>
<circle opacity="0.12" cx="118" cy="65" r="22" fill="#677A9E"/>
<path d="M124.417 55.8333C125.933 55.8333 127.167 57.0672 127.167 58.5833V71.4167C127.167 72.9328 125.933 74.1667 124.417 74.1667H111.583C110.067 74.1667 108.833 72.9328 108.833 71.4167V58.5833C108.833 57.0672 110.067 55.8333 111.583 55.8333H124.417ZM124.417 54H111.583C109.052 54 107 56.0524 107 58.5833V71.4167C107 73.9476 109.052 76 111.583 76H124.417C126.949 76 129 73.9476 129 71.4167V58.5833C129 56.0524 126.949 54 124.417 54ZM118 59.5C114.963 59.5 112.5 61.9631 112.5 65C112.5 68.0369 114.963 70.5 118 70.5C121.037 70.5 123.5 68.0369 123.5 65C123.5 61.9631 121.037 59.5 118 59.5ZM118 68.6667C115.978 68.6667 114.333 67.0222 114.333 65C114.333 62.9778 115.978 61.3333 118 61.3333C120.021 61.3333 121.667 62.9778 121.667 65C121.667 67.0222 120.021 68.6667 118 68.6667ZM124.417 59.5C123.91 59.5 123.5 59.0893 123.5 58.5833C123.5 58.0773 123.91 57.6667 124.417 57.6667C124.924 57.6667 125.333 58.0773 125.333 58.5833C125.333 59.0893 124.924 59.5 124.417 59.5Z" fill="#677A9E"/>
<rect opacity="0.1" width="237" height="20" fill="#677A9E"/>
<rect x="46" y="9" width="12" height="2" fill="white"/>
<rect x="64" y="9" width="12" height="2" fill="white"/>
<rect x="82" y="9" width="12" height="2" fill="white"/>
<rect x="144" y="9" width="12" height="2" fill="white"/>
<rect x="162" y="9" width="12" height="2" fill="white"/>
<rect x="180" y="9" width="12" height="2" fill="white"/>
<rect x="10" y="9" width="6" height="2" fill="white"/>
<rect x="221" y="9" width="6" height="2" fill="white"/>
<rect x="109" y="8" width="20" height="4" fill="white"/>
</svg>
