<svg width="237" height="130" viewBox="0 0 237 130" fill="none" xmlns="http://www.w3.org/2000/svg">
<rect width="237" height="130" fill="#1C66AB" fill-opacity="0.05"/>
<rect opacity="0.1" x="41" y="30" width="70" height="70" fill="#677A9E"/>
<rect x="51" y="105" width="30" height="2" fill="#677A9E"/>
<rect x="51" y="110" width="30" height="2" fill="#677A9E"/>
<rect x="51" y="115" width="12" height="4" fill="#677A9E"/>
<circle opacity="0.12" cx="76" cy="65" r="21" fill="#677A9E"/>
<path d="M82.4167 55.8333C83.9328 55.8333 85.1667 57.0672 85.1667 58.5833V71.4167C85.1667 72.9328 83.9328 74.1667 82.4167 74.1667H69.5833C68.0672 74.1667 66.8333 72.9328 66.8333 71.4167V58.5833C66.8333 57.0672 68.0672 55.8333 69.5833 55.8333H82.4167ZM82.4167 54H69.5833C67.0524 54 65 56.0524 65 58.5833V71.4167C65 73.9476 67.0524 76 69.5833 76H82.4167C84.9485 76 87 73.9476 87 71.4167V58.5833C87 56.0524 84.9485 54 82.4167 54ZM76 59.5C72.9631 59.5 70.5 61.9631 70.5 65C70.5 68.0369 72.9631 70.5 76 70.5C79.0369 70.5 81.5 68.0369 81.5 65C81.5 61.9631 79.0369 59.5 76 59.5ZM76 68.6667C73.9778 68.6667 72.3333 67.0222 72.3333 65C72.3333 62.9778 73.9778 61.3333 76 61.3333C78.0213 61.3333 79.6667 62.9778 79.6667 65C79.6667 67.0222 78.0213 68.6667 76 68.6667ZM82.4167 59.5C81.9098 59.5 81.5 59.0893 81.5 58.5833C81.5 58.0773 81.9098 57.6667 82.4167 57.6667C82.9236 57.6667 83.3333 58.0773 83.3333 58.5833C83.3333 59.0893 82.9236 59.5 82.4167 59.5Z" fill="#677A9E"/>
<rect opacity="0.1" x="126" y="30" width="60" height="60" fill="#677A9E"/>
<circle opacity="0.12" cx="156" cy="60" r="18" fill="#677A9E"/>
<path d="M161.5 52.1429C162.8 52.1429 163.857 53.2004 163.857 54.5V65.5C163.857 66.7996 162.8 67.8571 161.5 67.8571H150.5C149.2 67.8571 148.143 66.7996 148.143 65.5V54.5C148.143 53.2004 149.2 52.1429 150.5 52.1429H161.5ZM161.5 50.5714H150.5C148.331 50.5714 146.571 52.3306 146.571 54.5V65.5C146.571 67.6694 148.331 69.4286 150.5 69.4286H161.5C163.67 69.4286 165.429 67.6694 165.429 65.5V54.5C165.429 52.3306 163.67 50.5714 161.5 50.5714ZM156 55.2857C153.397 55.2857 151.286 57.3969 151.286 60C151.286 62.6031 153.397 64.7143 156 64.7143C158.603 64.7143 160.714 62.6031 160.714 60C160.714 57.3969 158.603 55.2857 156 55.2857ZM156 63.1429C154.267 63.1429 152.857 61.7333 152.857 60C152.857 58.2667 154.267 56.8571 156 56.8571C157.733 56.8571 159.143 58.2667 159.143 60C159.143 61.7333 157.733 63.1429 156 63.1429ZM161.5 55.2857C161.066 55.2857 160.714 54.9337 160.714 54.5C160.714 54.0663 161.066 53.7143 161.5 53.7143C161.935 53.7143 162.286 54.0663 162.286 54.5C162.286 54.9337 161.935 55.2857 161.5 55.2857Z" fill="#677A9E"/>
<rect x="136" y="95" width="30" height="2" fill="#677A9E"/>
<rect x="136" y="100" width="30" height="2" fill="#677A9E"/>
<rect x="136" y="105" width="12" height="4" fill="#677A9E"/>
<rect opacity="0.1" width="237" height="20" fill="#677A9E"/>
<rect x="46" y="9" width="12" height="2" fill="white"/>
<rect x="64" y="9" width="12" height="2" fill="white"/>
<rect x="82" y="9" width="12" height="2" fill="white"/>
<rect x="144" y="9" width="12" height="2" fill="white"/>
<rect x="162" y="9" width="12" height="2" fill="white"/>
<rect x="180" y="9" width="12" height="2" fill="white"/>
<rect x="10" y="9" width="6" height="2" fill="white"/>
<rect x="221" y="9" width="6" height="2" fill="white"/>
<rect x="109" y="8" width="20" height="4" fill="white"/>
</svg>
