<svg width="252" height="150" viewBox="0 0 252 150" fill="none" xmlns="http://www.w3.org/2000/svg">
<rect opacity="0.12" width="252" height="150" fill="#677A9E"/>
<circle opacity="0.8" cx="126" cy="75" r="35" fill="white"/>
<path d="M114.372 75C114.372 73.7273 114.558 72.4545 115.023 71.2727L108.14 66.0909C106.744 68.8182 106 71.8182 106 75C106 78.1818 106.744 81.1818 108.14 83.8182L115.023 78.6364C114.558 77.5455 114.372 76.2727 114.372 75Z" fill="#FBBC05"/>
<path d="M126.465 63.1818C129.349 63.1818 131.954 64.1818 134 65.8182L139.954 60C136.326 56.9091 131.675 55 126.465 55C118.372 55 111.395 59.5455 108.14 66.1818L115.023 71.3636C116.605 66.5455 121.07 63.1818 126.465 63.1818Z" fill="#EA4335"/>
<path d="M126.465 86.8182C121.07 86.8182 116.605 83.4545 115.023 78.7273L108.14 83.9091C111.395 90.4545 118.372 95 126.465 95C131.488 95 136.233 93.2727 139.768 90L133.256 85.0909C131.395 86.1818 129.07 86.8182 126.465 86.8182Z" fill="#34A853"/>
<path d="M126.465 71.3636V79.0909H137.442C136.884 81.7273 135.396 83.7273 133.256 85.0909L139.768 90C143.489 86.5455 146 81.5455 146 75C146 73.8182 145.814 72.5455 145.535 71.3636H126.465Z" fill="#4285F4"/>
</svg>
