<svg width="237" height="130" viewBox="0 0 237 130" fill="none" xmlns="http://www.w3.org/2000/svg">
<rect width="237" height="130" fill="#1C66AB" fill-opacity="0.05"/>
<path opacity="0.6" d="M120 48H118V58H120V48Z" fill="#677A9E"/>
<path d="M120 72H118V82H120V72Z" fill="#677A9E"/>
<path opacity="0.4" d="M112 66V64H102V66H112Z" fill="#677A9E"/>
<path opacity="0.8" d="M136 66V64H126V66H136Z" fill="#677A9E"/>
<path opacity="0.3" d="M114.736 70.6557L113.322 69.2415L106.251 76.3125L107.665 77.7267L114.736 70.6557Z" fill="#677A9E"/>
<path opacity="0.7" d="M131.748 53.6851L130.334 52.2709L123.263 59.3419L124.677 60.7561L131.748 53.6851Z" fill="#677A9E"/>
<path opacity="0.5" d="M113.365 60.757L114.779 59.3428L107.708 52.2718L106.294 53.686L113.365 60.757Z" fill="#677A9E"/>
<path opacity="0.9" d="M130.294 77.7274L131.708 76.3132L124.637 69.2422L123.223 70.6564L130.294 77.7274Z" fill="#677A9E"/>
</svg>
