<svg width="237" height="130" viewBox="0 0 237 130" fill="none" xmlns="http://www.w3.org/2000/svg">
<rect width="237" height="130" fill="#1C66AB" fill-opacity="0.05"/>
<rect x="158" y="63" width="30" height="4" fill="#677A9E"/>
<rect x="158" y="72" width="40" height="2" fill="#677A9E"/>
<rect x="158" y="79" width="40" height="2" fill="#677A9E"/>
<rect x="158" y="56" width="10" height="2" fill="#677A9E"/>
<rect x="158" y="88" width="16" height="6" fill="#677A9E"/>
<rect opacity="0.1" y="20" width="119" height="110" fill="#677A9E"/>
<circle opacity="0.12" cx="60" cy="75" r="22" fill="#677A9E"/>
<path d="M66.4167 65.8333C67.9328 65.8333 69.1667 67.0672 69.1667 68.5833V81.4167C69.1667 82.9328 67.9328 84.1667 66.4167 84.1667H53.5833C52.0672 84.1667 50.8333 82.9328 50.8333 81.4167V68.5833C50.8333 67.0672 52.0672 65.8333 53.5833 65.8333H66.4167ZM66.4167 64H53.5833C51.0524 64 49 66.0524 49 68.5833V81.4167C49 83.9476 51.0524 86 53.5833 86H66.4167C68.9485 86 71 83.9476 71 81.4167V68.5833C71 66.0524 68.9485 64 66.4167 64ZM60 69.5C56.9631 69.5 54.5 71.9631 54.5 75C54.5 78.0369 56.9631 80.5 60 80.5C63.0369 80.5 65.5 78.0369 65.5 75C65.5 71.9631 63.0369 69.5 60 69.5ZM60 78.6667C57.9778 78.6667 56.3333 77.0222 56.3333 75C56.3333 72.9778 57.9778 71.3333 60 71.3333C62.0213 71.3333 63.6667 72.9778 63.6667 75C63.6667 77.0222 62.0213 78.6667 60 78.6667ZM66.4167 69.5C65.9098 69.5 65.5 69.0893 65.5 68.5833C65.5 68.0773 65.9098 67.6667 66.4167 67.6667C66.9236 67.6667 67.3333 68.0773 67.3333 68.5833C67.3333 69.0893 66.9236 69.5 66.4167 69.5Z" fill="#677A9E"/>
<circle cx="12" cy="68" r="1.5" transform="rotate(90 12 68)" stroke="#1C66AB"/>
<circle cx="12" cy="75" r="1" transform="rotate(90 12 75)" fill="#677A9E"/>
<circle cx="12" cy="82" r="1" transform="rotate(90 12 82)" fill="#677A9E"/>
<rect opacity="0.1" width="237" height="20" fill="#677A9E"/>
<rect x="46" y="9" width="12" height="2" fill="white"/>
<rect x="64" y="9" width="12" height="2" fill="white"/>
<rect x="82" y="9" width="12" height="2" fill="white"/>
<rect x="144" y="9" width="12" height="2" fill="white"/>
<rect x="162" y="9" width="12" height="2" fill="white"/>
<rect x="180" y="9" width="12" height="2" fill="white"/>
<rect x="10" y="9" width="6" height="2" fill="white"/>
<rect x="221" y="9" width="6" height="2" fill="white"/>
<rect x="109" y="8" width="20" height="4" fill="white"/>
</svg>
