<svg width="237" height="130" viewBox="0 0 237 130" fill="none" xmlns="http://www.w3.org/2000/svg">
<g clip-path="url(#clip0)">
<rect width="237" height="130" fill="#1C66AB" fill-opacity="0.05"/>
<rect opacity="0.1" x="39" y="30" width="38" height="38" fill="#677A9E"/>
<circle opacity="0.12" cx="58" cy="49" r="13" fill="#677A9E"/>
<path d="M61.7917 43.5833C62.6876 43.5833 63.4167 44.3124 63.4167 45.2083V52.7917C63.4167 53.6876 62.6876 54.4167 61.7917 54.4167H54.2083C53.3124 54.4167 52.5833 53.6876 52.5833 52.7917V45.2083C52.5833 44.3124 53.3124 43.5833 54.2083 43.5833H61.7917ZM61.7917 42.5H54.2083C52.7128 42.5 51.5 43.7128 51.5 45.2083V52.7917C51.5 54.2872 52.7128 55.5 54.2083 55.5H61.7917C63.2878 55.5 64.5 54.2872 64.5 52.7917V45.2083C64.5 43.7128 63.2878 42.5 61.7917 42.5ZM58 45.75C56.2055 45.75 54.75 47.2055 54.75 49C54.75 50.7945 56.2055 52.25 58 52.25C59.7945 52.25 61.25 50.7945 61.25 49C61.25 47.2055 59.7945 45.75 58 45.75ZM58 51.1667C56.8051 51.1667 55.8333 50.1949 55.8333 49C55.8333 47.8051 56.8051 46.8333 58 46.8333C59.1944 46.8333 60.1667 47.8051 60.1667 49C60.1667 50.1949 59.1944 51.1667 58 51.1667ZM61.7917 45.75C61.4921 45.75 61.25 45.5073 61.25 45.2083C61.25 44.9093 61.4921 44.6667 61.7917 44.6667C62.0912 44.6667 62.3333 44.9093 62.3333 45.2083C62.3333 45.5073 62.0912 45.75 61.7917 45.75Z" fill="#677A9E"/>
<rect opacity="0.1" x="81" y="30" width="38" height="38" fill="#677A9E"/>
<circle opacity="0.15" cx="100" cy="49" r="13" fill="#677A9E"/>
<path d="M103.792 43.5833C104.688 43.5833 105.417 44.3124 105.417 45.2083V52.7917C105.417 53.6876 104.688 54.4167 103.792 54.4167H96.2083C95.3124 54.4167 94.5833 53.6876 94.5833 52.7917V45.2083C94.5833 44.3124 95.3124 43.5833 96.2083 43.5833H103.792ZM103.792 42.5H96.2083C94.7128 42.5 93.5 43.7128 93.5 45.2083V52.7917C93.5 54.2872 94.7128 55.5 96.2083 55.5H103.792C105.288 55.5 106.5 54.2872 106.5 52.7917V45.2083C106.5 43.7128 105.288 42.5 103.792 42.5ZM100 45.75C98.2055 45.75 96.75 47.2055 96.75 49C96.75 50.7945 98.2055 52.25 100 52.25C101.795 52.25 103.25 50.7945 103.25 49C103.25 47.2055 101.795 45.75 100 45.75ZM100 51.1667C98.8051 51.1667 97.8333 50.1949 97.8333 49C97.8333 47.8051 98.8051 46.8333 100 46.8333C101.194 46.8333 102.167 47.8051 102.167 49C102.167 50.1949 101.194 51.1667 100 51.1667ZM103.792 45.75C103.492 45.75 103.25 45.5073 103.25 45.2083C103.25 44.9093 103.492 44.6667 103.792 44.6667C104.091 44.6667 104.333 44.9093 104.333 45.2083C104.333 45.5073 104.091 45.75 103.792 45.75Z" fill="#677A9E"/>
<rect opacity="0.1" x="39" y="72" width="38" height="38" fill="#677A9E"/>
<circle opacity="0.15" cx="58" cy="91" r="13" fill="#677A9E"/>
<path d="M61.7917 85.5833C62.6876 85.5833 63.4167 86.3124 63.4167 87.2083V94.7917C63.4167 95.6876 62.6876 96.4167 61.7917 96.4167H54.2083C53.3124 96.4167 52.5833 95.6876 52.5833 94.7917V87.2083C52.5833 86.3124 53.3124 85.5833 54.2083 85.5833H61.7917ZM61.7917 84.5H54.2083C52.7128 84.5 51.5 85.7128 51.5 87.2083V94.7917C51.5 96.2872 52.7128 97.5 54.2083 97.5H61.7917C63.2878 97.5 64.5 96.2872 64.5 94.7917V87.2083C64.5 85.7128 63.2878 84.5 61.7917 84.5ZM58 87.75C56.2055 87.75 54.75 89.2055 54.75 91C54.75 92.7945 56.2055 94.25 58 94.25C59.7945 94.25 61.25 92.7945 61.25 91C61.25 89.2055 59.7945 87.75 58 87.75ZM58 93.1667C56.8051 93.1667 55.8333 92.1949 55.8333 91C55.8333 89.8051 56.8051 88.8333 58 88.8333C59.1944 88.8333 60.1667 89.8051 60.1667 91C60.1667 92.1949 59.1944 93.1667 58 93.1667ZM61.7917 87.75C61.4921 87.75 61.25 87.5073 61.25 87.2083C61.25 86.9093 61.4921 86.6667 61.7917 86.6667C62.0912 86.6667 62.3333 86.9093 62.3333 87.2083C62.3333 87.5073 62.0912 87.75 61.7917 87.75Z" fill="#677A9E"/>
<rect opacity="0.1" x="81" y="72" width="38" height="38" fill="#677A9E"/>
<circle opacity="0.15" cx="100" cy="91" r="13" fill="#677A9E"/>
<path d="M103.792 85.5833C104.688 85.5833 105.417 86.3124 105.417 87.2083V94.7917C105.417 95.6876 104.688 96.4167 103.792 96.4167H96.2083C95.3124 96.4167 94.5833 95.6876 94.5833 94.7917V87.2083C94.5833 86.3124 95.3124 85.5833 96.2083 85.5833H103.792ZM103.792 84.5H96.2083C94.7128 84.5 93.5 85.7128 93.5 87.2083V94.7917C93.5 96.2872 94.7128 97.5 96.2083 97.5H103.792C105.288 97.5 106.5 96.2872 106.5 94.7917V87.2083C106.5 85.7128 105.288 84.5 103.792 84.5ZM100 87.75C98.2055 87.75 96.75 89.2055 96.75 91C96.75 92.7945 98.2055 94.25 100 94.25C101.795 94.25 103.25 92.7945 103.25 91C103.25 89.2055 101.795 87.75 100 87.75ZM100 93.1667C98.8051 93.1667 97.8333 92.1949 97.8333 91C97.8333 89.8051 98.8051 88.8333 100 88.8333C101.194 88.8333 102.167 89.8051 102.167 91C102.167 92.1949 101.194 93.1667 100 93.1667ZM103.792 87.75C103.492 87.75 103.25 87.5073 103.25 87.2083C103.25 86.9093 103.492 86.6667 103.792 86.6667C104.091 86.6667 104.333 86.9093 104.333 87.2083C104.333 87.5073 104.091 87.75 103.792 87.75Z" fill="#677A9E"/>
<rect opacity="0.1" x="39" y="114" width="38" height="38" fill="#677A9E"/>
<circle opacity="0.15" cx="58" cy="133" r="13" fill="#677A9E"/>
<path d="M61.7917 126.583C62.6876 126.583 63.4167 127.312 63.4167 128.208V135.792C63.4167 136.688 62.6876 137.417 61.7917 137.417H54.2083C53.3124 137.417 52.5833 136.688 52.5833 135.792V128.208C52.5833 127.312 53.3124 126.583 54.2083 126.583H61.7917ZM61.7917 125.5H54.2083C52.7128 125.5 51.5 126.713 51.5 128.208V135.792C51.5 137.287 52.7128 138.5 54.2083 138.5H61.7917C63.2878 138.5 64.5 137.287 64.5 135.792V128.208C64.5 126.713 63.2878 125.5 61.7917 125.5ZM58 128.75C56.2055 128.75 54.75 130.205 54.75 132C54.75 133.795 56.2055 135.25 58 135.25C59.7945 135.25 61.25 133.795 61.25 132C61.25 130.205 59.7945 128.75 58 128.75ZM58 134.167C56.8051 134.167 55.8333 133.195 55.8333 132C55.8333 130.805 56.8051 129.833 58 129.833C59.1944 129.833 60.1667 130.805 60.1667 132C60.1667 133.195 59.1944 134.167 58 134.167ZM61.7917 128.75C61.4921 128.75 61.25 128.507 61.25 128.208C61.25 127.909 61.4921 127.667 61.7917 127.667C62.0912 127.667 62.3333 127.909 62.3333 128.208C62.3333 128.507 62.0912 128.75 61.7917 128.75Z" fill="#677A9E"/>
<rect opacity="0.1" x="81" y="114" width="38" height="38" fill="#677A9E"/>
<circle opacity="0.15" cx="100" cy="133" r="13" fill="#677A9E"/>
<path d="M103.792 126.583C104.688 126.583 105.417 127.312 105.417 128.208V135.792C105.417 136.688 104.688 137.417 103.792 137.417H96.2083C95.3124 137.417 94.5833 136.688 94.5833 135.792V128.208C94.5833 127.312 95.3124 126.583 96.2083 126.583H103.792ZM103.792 125.5H96.2083C94.7128 125.5 93.5 126.713 93.5 128.208V135.792C93.5 137.287 94.7128 138.5 96.2083 138.5H103.792C105.288 138.5 106.5 137.287 106.5 135.792V128.208C106.5 126.713 105.288 125.5 103.792 125.5ZM100 128.75C98.2055 128.75 96.75 130.205 96.75 132C96.75 133.795 98.2055 135.25 100 135.25C101.795 135.25 103.25 133.795 103.25 132C103.25 130.205 101.795 128.75 100 128.75ZM100 134.167C98.8051 134.167 97.8333 133.195 97.8333 132C97.8333 130.805 98.8051 129.833 100 129.833C101.194 129.833 102.167 130.805 102.167 132C102.167 133.195 101.194 134.167 100 134.167ZM103.792 128.75C103.492 128.75 103.25 128.507 103.25 128.208C103.25 127.909 103.492 127.667 103.792 127.667C104.091 127.667 104.333 127.909 104.333 128.208C104.333 128.507 104.091 128.75 103.792 128.75Z" fill="#677A9E"/>
<rect x="139" y="57" width="30" height="4" fill="#677A9E"/>
<rect x="139" y="66" width="40" height="2" fill="#677A9E"/>
<rect x="139" y="73" width="40" height="2" fill="#677A9E"/>
<rect x="139" y="50" width="10" height="2" fill="#677A9E"/>
<rect x="139" y="82" width="16" height="6" fill="#677A9E"/>
<rect opacity="0.1" width="237" height="20" fill="#677A9E"/>
<rect x="46" y="9" width="12" height="2" fill="white"/>
<rect x="64" y="9" width="12" height="2" fill="white"/>
<rect x="82" y="9" width="12" height="2" fill="white"/>
<rect x="144" y="9" width="12" height="2" fill="white"/>
<rect x="162" y="9" width="12" height="2" fill="white"/>
<rect x="180" y="9" width="12" height="2" fill="white"/>
<rect x="10" y="9" width="6" height="2" fill="white"/>
<rect x="221" y="9" width="6" height="2" fill="white"/>
<rect x="109" y="8" width="20" height="4" fill="white"/>
</g>
<defs>
<clipPath id="clip0">
<rect width="237" height="130" fill="white"/>
</clipPath>
</defs>
</svg>
