<svg width="237" height="130" viewBox="0 0 237 130" fill="none" xmlns="http://www.w3.org/2000/svg">
<g clip-path="url(#clip0)">
<rect width="237" height="130" fill="#1C66AB" fill-opacity="0.05"/>
<rect opacity="0.1" x="34" y="30" width="50" height="50" fill="#677A9E"/>
<rect x="44" y="85" width="30" height="2" fill="#677A9E"/>
<rect x="44" y="90" width="30" height="2" fill="#677A9E"/>
<rect x="44" y="95" width="12" height="4" fill="#677A9E"/>
<circle opacity="0.12" cx="59" cy="55" r="15" fill="#677A9E"/>
<path d="M57.7625 47.9879C58.4448 47.3056 59.5552 47.3056 60.2374 47.9879L66.0121 53.7626C66.6943 54.4448 66.6943 55.5552 66.0121 56.2374L60.2374 62.0121C59.5552 62.6944 58.4448 62.6944 57.7625 62.0121L51.9878 56.2374C51.3056 55.5552 51.3056 54.4448 51.9878 53.7626L57.7625 47.9879ZM56.9376 47.1629L51.1629 52.9376C50.024 54.0765 50.024 55.9235 51.1629 57.0624L56.9376 62.8371C58.0764 63.976 59.9235 63.976 61.0624 62.8371L66.8371 57.0624C67.9763 55.9231 67.9759 54.0765 66.8371 52.9376L61.0624 47.1629C59.9235 46.024 58.0768 46.0236 56.9376 47.1629ZM56.5251 52.5251C55.1585 53.8917 55.1585 56.1083 56.5251 57.4749C57.8916 58.8414 60.1083 58.8414 61.4748 57.4749C62.8414 56.1083 62.8414 53.8917 61.4748 52.5251C60.1083 51.1586 57.8916 51.1586 56.5251 52.5251ZM60.6499 56.6499C59.7399 57.5598 58.26 57.5598 57.35 56.6499C56.4401 55.74 56.4401 54.26 57.35 53.3501C58.2596 52.4406 59.7399 52.4402 60.6499 53.3501C61.5598 54.26 61.5594 55.7404 60.6499 56.6499ZM59.4124 49.6378C59.1843 49.8659 58.8152 49.8655 58.5875 49.6378C58.3598 49.4101 58.3594 49.0409 58.5875 48.8128C58.8156 48.5847 59.1847 48.5851 59.4124 48.8128C59.6401 49.0405 59.6405 49.4097 59.4124 49.6378Z" fill="#677A9E"/>
<rect opacity="0.1" x="94" y="30" width="50" height="50" fill="#677A9E"/>
<rect x="104" y="85" width="30" height="2" fill="#677A9E"/>
<rect x="104" y="90" width="30" height="2" fill="#677A9E"/>
<rect x="104" y="95" width="12" height="4" fill="#677A9E"/>
<circle opacity="0.12" cx="119" cy="55" r="15" fill="#677A9E"/>
<path d="M123.083 49.1667C124.048 49.1667 124.833 49.9518 124.833 50.9167V59.0833C124.833 60.0482 124.048 60.8333 123.083 60.8333H114.917C113.952 60.8333 113.167 60.0482 113.167 59.0833V50.9167C113.167 49.9518 113.952 49.1667 114.917 49.1667H123.083ZM123.083 48H114.917C113.306 48 112 49.3061 112 50.9167V59.0833C112 60.6939 113.306 62 114.917 62H123.083C124.694 62 126 60.6939 126 59.0833V50.9167C126 49.3061 124.694 48 123.083 48ZM119 51.5C117.067 51.5 115.5 53.0674 115.5 55C115.5 56.9326 117.067 58.5 119 58.5C120.933 58.5 122.5 56.9326 122.5 55C122.5 53.0674 120.933 51.5 119 51.5ZM119 57.3333C117.713 57.3333 116.667 56.2868 116.667 55C116.667 53.7132 117.713 52.6667 119 52.6667C120.286 52.6667 121.333 53.7132 121.333 55C121.333 56.2868 120.286 57.3333 119 57.3333ZM123.083 51.5C122.761 51.5 122.5 51.2387 122.5 50.9167C122.5 50.5947 122.761 50.3333 123.083 50.3333C123.406 50.3333 123.667 50.5947 123.667 50.9167C123.667 51.2387 123.406 51.5 123.083 51.5Z" fill="#677A9E"/>
<rect opacity="0.1" x="154" y="30" width="50" height="50" fill="#677A9E"/>
<rect x="164" y="85" width="30" height="2" fill="#677A9E"/>
<rect x="164" y="90" width="30" height="2" fill="#677A9E"/>
<rect x="164" y="95" width="12" height="4" fill="#677A9E"/>
<circle opacity="0.12" cx="179" cy="55" r="15" fill="#677A9E"/>
<path d="M183.083 49.1667C184.048 49.1667 184.833 49.9518 184.833 50.9167V59.0833C184.833 60.0482 184.048 60.8333 183.083 60.8333H174.917C173.952 60.8333 173.167 60.0482 173.167 59.0833V50.9167C173.167 49.9518 173.952 49.1667 174.917 49.1667H183.083ZM183.083 48H174.917C173.306 48 172 49.3061 172 50.9167V59.0833C172 60.6939 173.306 62 174.917 62H183.083C184.694 62 186 60.6939 186 59.0833V50.9167C186 49.3061 184.694 48 183.083 48ZM179 51.5C177.067 51.5 175.5 53.0674 175.5 55C175.5 56.9326 177.067 58.5 179 58.5C180.933 58.5 182.5 56.9326 182.5 55C182.5 53.0674 180.933 51.5 179 51.5ZM179 57.3333C177.713 57.3333 176.667 56.2868 176.667 55C176.667 53.7132 177.713 52.6667 179 52.6667C180.286 52.6667 181.333 53.7132 181.333 55C181.333 56.2868 180.286 57.3333 179 57.3333ZM183.083 51.5C182.761 51.5 182.5 51.2387 182.5 50.9167C182.5 50.5947 182.761 50.3333 183.083 50.3333C183.406 50.3333 183.667 50.5947 183.667 50.9167C183.667 51.2387 183.406 51.5 183.083 51.5Z" fill="#677A9E"/>
<rect opacity="0.1" x="34" y="109" width="50" height="50" fill="#677A9E"/>
<circle opacity="0.12" cx="59" cy="134" r="15" fill="#677A9E"/>
<path d="M63.0833 128.167C64.0482 128.167 64.8333 128.952 64.8333 129.917V138.083C64.8333 139.048 64.0482 139.833 63.0833 139.833H54.9167C53.9518 139.833 53.1667 139.048 53.1667 138.083V129.917C53.1667 128.952 53.9518 128.167 54.9167 128.167H63.0833ZM63.0833 127H54.9167C53.3061 127 52 128.306 52 129.917V138.083C52 139.694 53.3061 141 54.9167 141H63.0833C64.6945 141 66 139.694 66 138.083V129.917C66 128.306 64.6945 127 63.0833 127ZM59 130.5C57.0674 130.5 55.5 132.067 55.5 134C55.5 135.933 57.0674 137.5 59 137.5C60.9326 137.5 62.5 135.933 62.5 134C62.5 132.067 60.9326 130.5 59 130.5ZM59 136.333C57.7132 136.333 56.6667 135.287 56.6667 134C56.6667 132.713 57.7132 131.667 59 131.667C60.2862 131.667 61.3333 132.713 61.3333 134C61.3333 135.287 60.2862 136.333 59 136.333ZM63.0833 130.5C62.7607 130.5 62.5 130.239 62.5 129.917C62.5 129.595 62.7607 129.333 63.0833 129.333C63.4059 129.333 63.6667 129.595 63.6667 129.917C63.6667 130.239 63.4059 130.5 63.0833 130.5Z" fill="#677A9E"/>
<rect opacity="0.1" x="94" y="109" width="50" height="50" fill="#677A9E"/>
<circle opacity="0.12" cx="119" cy="134" r="15" fill="#677A9E"/>
<path d="M123.083 128.167C124.048 128.167 124.833 128.952 124.833 129.917V138.083C124.833 139.048 124.048 139.833 123.083 139.833H114.917C113.952 139.833 113.167 139.048 113.167 138.083V129.917C113.167 128.952 113.952 128.167 114.917 128.167H123.083ZM123.083 127H114.917C113.306 127 112 128.306 112 129.917V138.083C112 139.694 113.306 141 114.917 141H123.083C124.694 141 126 139.694 126 138.083V129.917C126 128.306 124.694 127 123.083 127ZM119 130.5C117.067 130.5 115.5 132.067 115.5 134C115.5 135.933 117.067 137.5 119 137.5C120.933 137.5 122.5 135.933 122.5 134C122.5 132.067 120.933 130.5 119 130.5ZM119 136.333C117.713 136.333 116.667 135.287 116.667 134C116.667 132.713 117.713 131.667 119 131.667C120.286 131.667 121.333 132.713 121.333 134C121.333 135.287 120.286 136.333 119 136.333ZM123.083 130.5C122.761 130.5 122.5 130.239 122.5 129.917C122.5 129.595 122.761 129.333 123.083 129.333C123.406 129.333 123.667 129.595 123.667 129.917C123.667 130.239 123.406 130.5 123.083 130.5Z" fill="#677A9E"/>
<rect opacity="0.1" x="154" y="109" width="50" height="50" fill="#677A9E"/>
<circle opacity="0.12" cx="179" cy="134" r="15" fill="#677A9E"/>
<path d="M183.083 128.167C184.048 128.167 184.833 128.952 184.833 129.917V138.083C184.833 139.048 184.048 139.833 183.083 139.833H174.917C173.952 139.833 173.167 139.048 173.167 138.083V129.917C173.167 128.952 173.952 128.167 174.917 128.167H183.083ZM183.083 127H174.917C173.306 127 172 128.306 172 129.917V138.083C172 139.694 173.306 141 174.917 141H183.083C184.694 141 186 139.694 186 138.083V129.917C186 128.306 184.694 127 183.083 127ZM179 130.5C177.067 130.5 175.5 132.067 175.5 134C175.5 135.933 177.067 137.5 179 137.5C180.933 137.5 182.5 135.933 182.5 134C182.5 132.067 180.933 130.5 179 130.5ZM179 136.333C177.713 136.333 176.667 135.287 176.667 134C176.667 132.713 177.713 131.667 179 131.667C180.286 131.667 181.333 132.713 181.333 134C181.333 135.287 180.286 136.333 179 136.333ZM183.083 130.5C182.761 130.5 182.5 130.239 182.5 129.917C182.5 129.595 182.761 129.333 183.083 129.333C183.406 129.333 183.667 129.595 183.667 129.917C183.667 130.239 183.406 130.5 183.083 130.5Z" fill="#677A9E"/>
<rect opacity="0.1" width="237" height="20" fill="#677A9E"/>
<rect x="46" y="9" width="12" height="2" fill="white"/>
<rect x="64" y="9" width="12" height="2" fill="white"/>
<rect x="82" y="9" width="12" height="2" fill="white"/>
<rect x="144" y="9" width="12" height="2" fill="white"/>
<rect x="162" y="9" width="12" height="2" fill="white"/>
<rect x="180" y="9" width="12" height="2" fill="white"/>
<rect x="10" y="9" width="6" height="2" fill="white"/>
<rect x="221" y="9" width="6" height="2" fill="white"/>
<rect x="109" y="8" width="20" height="4" fill="white"/>
</g>
<defs>
<clipPath id="clip0">
<rect width="237" height="130" fill="white"/>
</clipPath>
</defs>
</svg>
