<svg width="237" height="130" viewBox="0 0 237 130" fill="none" xmlns="http://www.w3.org/2000/svg">
<g clip-path="url(#clip0)">
<rect width="237" height="130" fill="#1C66AB" fill-opacity="0.05"/>
<rect opacity="0.1" x="34" y="30" width="50" height="50" fill="#677A9E"/>
<rect x="44" y="85" width="30" height="2" fill="#677A9E"/>
<rect x="44" y="90" width="30" height="2" fill="#677A9E"/>
<rect x="44" y="95" width="12" height="4" fill="#677A9E"/>
<circle opacity="0.12" cx="59" cy="55" r="15" fill="#677A9E"/>
<path d="M63.0833 49.1667C64.0482 49.1667 64.8333 49.9518 64.8333 50.9167V59.0833C64.8333 60.0482 64.0482 60.8333 63.0833 60.8333H54.9167C53.9518 60.8333 53.1667 60.0482 53.1667 59.0833V50.9167C53.1667 49.9518 53.9518 49.1667 54.9167 49.1667H63.0833ZM63.0833 48H54.9167C53.3061 48 52 49.3061 52 50.9167V59.0833C52 60.6939 53.3061 62 54.9167 62H63.0833C64.6945 62 66 60.6939 66 59.0833V50.9167C66 49.3061 64.6945 48 63.0833 48ZM59 51.5C57.0674 51.5 55.5 53.0674 55.5 55C55.5 56.9326 57.0674 58.5 59 58.5C60.9326 58.5 62.5 56.9326 62.5 55C62.5 53.0674 60.9326 51.5 59 51.5ZM59 57.3333C57.7132 57.3333 56.6667 56.2868 56.6667 55C56.6667 53.7132 57.7132 52.6667 59 52.6667C60.2862 52.6667 61.3333 53.7132 61.3333 55C61.3333 56.2868 60.2862 57.3333 59 57.3333ZM63.0833 51.5C62.7607 51.5 62.5 51.2387 62.5 50.9167C62.5 50.5947 62.7607 50.3333 63.0833 50.3333C63.4059 50.3333 63.6667 50.5947 63.6667 50.9167C63.6667 51.2387 63.4059 51.5 63.0833 51.5Z" fill="#677A9E"/>
<rect opacity="0.1" x="94" y="30" width="50" height="50" fill="#677A9E"/>
<rect x="104" y="85" width="30" height="2" fill="#677A9E"/>
<rect x="104" y="90" width="30" height="2" fill="#677A9E"/>
<rect x="104" y="95" width="12" height="4" fill="#677A9E"/>
<circle opacity="0.12" cx="119" cy="55" r="15" fill="#677A9E"/>
<path d="M123.083 49.1667C124.048 49.1667 124.833 49.9518 124.833 50.9167V59.0833C124.833 60.0482 124.048 60.8333 123.083 60.8333H114.917C113.952 60.8333 113.167 60.0482 113.167 59.0833V50.9167C113.167 49.9518 113.952 49.1667 114.917 49.1667H123.083ZM123.083 48H114.917C113.306 48 112 49.3061 112 50.9167V59.0833C112 60.6939 113.306 62 114.917 62H123.083C124.694 62 126 60.6939 126 59.0833V50.9167C126 49.3061 124.694 48 123.083 48ZM119 51.5C117.067 51.5 115.5 53.0674 115.5 55C115.5 56.9326 117.067 58.5 119 58.5C120.933 58.5 122.5 56.9326 122.5 55C122.5 53.0674 120.933 51.5 119 51.5ZM119 57.3333C117.713 57.3333 116.667 56.2868 116.667 55C116.667 53.7132 117.713 52.6667 119 52.6667C120.286 52.6667 121.333 53.7132 121.333 55C121.333 56.2868 120.286 57.3333 119 57.3333ZM123.083 51.5C122.761 51.5 122.5 51.2387 122.5 50.9167C122.5 50.5947 122.761 50.3333 123.083 50.3333C123.406 50.3333 123.667 50.5947 123.667 50.9167C123.667 51.2387 123.406 51.5 123.083 51.5Z" fill="#677A9E"/>
<rect opacity="0.1" x="154" y="30" width="50" height="50" fill="#677A9E"/>
<rect x="164" y="85" width="30" height="2" fill="#677A9E"/>
<rect x="164" y="90" width="30" height="2" fill="#677A9E"/>
<rect x="164" y="95" width="12" height="4" fill="#677A9E"/>
<circle opacity="0.12" cx="179" cy="55" r="15" fill="#677A9E"/>
<path d="M183.083 49.1667C184.048 49.1667 184.833 49.9518 184.833 50.9167V59.0833C184.833 60.0482 184.048 60.8333 183.083 60.8333H174.917C173.952 60.8333 173.167 60.0482 173.167 59.0833V50.9167C173.167 49.9518 173.952 49.1667 174.917 49.1667H183.083ZM183.083 48H174.917C173.306 48 172 49.3061 172 50.9167V59.0833C172 60.6939 173.306 62 174.917 62H183.083C184.694 62 186 60.6939 186 59.0833V50.9167C186 49.3061 184.694 48 183.083 48ZM179 51.5C177.067 51.5 175.5 53.0674 175.5 55C175.5 56.9326 177.067 58.5 179 58.5C180.933 58.5 182.5 56.9326 182.5 55C182.5 53.0674 180.933 51.5 179 51.5ZM179 57.3333C177.713 57.3333 176.667 56.2868 176.667 55C176.667 53.7132 177.713 52.6667 179 52.6667C180.286 52.6667 181.333 53.7132 181.333 55C181.333 56.2868 180.286 57.3333 179 57.3333ZM183.083 51.5C182.761 51.5 182.5 51.2387 182.5 50.9167C182.5 50.5947 182.761 50.3333 183.083 50.3333C183.406 50.3333 183.667 50.5947 183.667 50.9167C183.667 51.2387 183.406 51.5 183.083 51.5Z" fill="#677A9E"/>
<rect opacity="0.1" x="34" y="109" width="50" height="50" fill="#677A9E"/>
<circle opacity="0.12" cx="59" cy="134" r="15" fill="#677A9E"/>
<path d="M63.0833 126.167C64.0482 126.167 64.8333 126.952 64.8333 127.917V136.083C64.8333 137.048 64.0482 137.833 63.0833 137.833H54.9167C53.9518 137.833 53.1667 137.048 53.1667 136.083V127.917C53.1667 126.952 53.9518 126.167 54.9167 126.167H63.0833ZM63.0833 125H54.9167C53.3061 125 52 126.306 52 127.917V136.083C52 137.694 53.3061 139 54.9167 139H63.0833C64.6945 139 66 137.694 66 136.083V127.917C66 126.306 64.6945 125 63.0833 125ZM59 128.5C57.0674 128.5 55.5 130.067 55.5 132C55.5 133.933 57.0674 135.5 59 135.5C60.9326 135.5 62.5 133.933 62.5 132C62.5 130.067 60.9326 128.5 59 128.5ZM59 134.333C57.7132 134.333 56.6667 133.287 56.6667 132C56.6667 130.713 57.7132 129.667 59 129.667C60.2862 129.667 61.3333 130.713 61.3333 132C61.3333 133.287 60.2862 134.333 59 134.333ZM63.0833 128.5C62.7607 128.5 62.5 128.239 62.5 127.917C62.5 127.595 62.7607 127.333 63.0833 127.333C63.4059 127.333 63.6667 127.595 63.6667 127.917C63.6667 128.239 63.4059 128.5 63.0833 128.5Z" fill="#677A9E"/>
<rect opacity="0.1" x="94" y="109" width="50" height="50" fill="#677A9E"/>
<circle opacity="0.12" cx="119" cy="134" r="15" fill="#677A9E"/>
<path d="M123.083 126.167C124.048 126.167 124.833 126.952 124.833 127.917V136.083C124.833 137.048 124.048 137.833 123.083 137.833H114.917C113.952 137.833 113.167 137.048 113.167 136.083V127.917C113.167 126.952 113.952 126.167 114.917 126.167H123.083ZM123.083 125H114.917C113.306 125 112 126.306 112 127.917V136.083C112 137.694 113.306 139 114.917 139H123.083C124.694 139 126 137.694 126 136.083V127.917C126 126.306 124.694 125 123.083 125ZM119 128.5C117.067 128.5 115.5 130.067 115.5 132C115.5 133.933 117.067 135.5 119 135.5C120.933 135.5 122.5 133.933 122.5 132C122.5 130.067 120.933 128.5 119 128.5ZM119 134.333C117.713 134.333 116.667 133.287 116.667 132C116.667 130.713 117.713 129.667 119 129.667C120.286 129.667 121.333 130.713 121.333 132C121.333 133.287 120.286 134.333 119 134.333ZM123.083 128.5C122.761 128.5 122.5 128.239 122.5 127.917C122.5 127.595 122.761 127.333 123.083 127.333C123.406 127.333 123.667 127.595 123.667 127.917C123.667 128.239 123.406 128.5 123.083 128.5Z" fill="#677A9E"/>
<rect opacity="0.1" x="154" y="109" width="50" height="50" fill="#677A9E"/>
<circle opacity="0.12" cx="179" cy="134" r="15" fill="#677A9E"/>
<path d="M183.083 126.167C184.048 126.167 184.833 126.952 184.833 127.917V136.083C184.833 137.048 184.048 137.833 183.083 137.833H174.917C173.952 137.833 173.167 137.048 173.167 136.083V127.917C173.167 126.952 173.952 126.167 174.917 126.167H183.083ZM183.083 125H174.917C173.306 125 172 126.306 172 127.917V136.083C172 137.694 173.306 139 174.917 139H183.083C184.694 139 186 137.694 186 136.083V127.917C186 126.306 184.694 125 183.083 125ZM179 128.5C177.067 128.5 175.5 130.067 175.5 132C175.5 133.933 177.067 135.5 179 135.5C180.933 135.5 182.5 133.933 182.5 132C182.5 130.067 180.933 128.5 179 128.5ZM179 134.333C177.713 134.333 176.667 133.287 176.667 132C176.667 130.713 177.713 129.667 179 129.667C180.286 129.667 181.333 130.713 181.333 132C181.333 133.287 180.286 134.333 179 134.333ZM183.083 128.5C182.761 128.5 182.5 128.239 182.5 127.917C182.5 127.595 182.761 127.333 183.083 127.333C183.406 127.333 183.667 127.595 183.667 127.917C183.667 128.239 183.406 128.5 183.083 128.5Z" fill="#677A9E"/>
<rect opacity="0.1" width="237" height="20" fill="#677A9E"/>
<rect x="46" y="9" width="12" height="2" fill="white"/>
<rect x="64" y="9" width="12" height="2" fill="white"/>
<rect x="82" y="9" width="12" height="2" fill="white"/>
<rect x="144" y="9" width="12" height="2" fill="white"/>
<rect x="162" y="9" width="12" height="2" fill="white"/>
<rect x="180" y="9" width="12" height="2" fill="white"/>
<rect x="10" y="9" width="6" height="2" fill="white"/>
<rect x="221" y="9" width="6" height="2" fill="white"/>
<rect x="109" y="8" width="20" height="4" fill="white"/>
</g>
<defs>
<clipPath id="clip0">
<rect width="237" height="130" fill="white"/>
</clipPath>
</defs>
</svg>
