<svg width="237" height="130" viewBox="0 0 237 130" fill="none" xmlns="http://www.w3.org/2000/svg">
<rect width="237" height="130" fill="#1C66AB" fill-opacity="0.05"/>
<path d="M107 57C109.209 57 111 55.2091 111 53C111 50.7909 109.209 49 107 49C104.791 49 103 50.7909 103 53C103 55.2091 104.791 57 107 57Z" fill="#677A9E"/>
<path opacity="0.6" d="M119 57C121.209 57 123 55.2091 123 53C123 50.7909 121.209 49 119 49C116.791 49 115 50.7909 115 53C115 55.2091 116.791 57 119 57Z" fill="#677A9E"/>
<path d="M131 57C133.209 57 135 55.2091 135 53C135 50.7909 133.209 49 131 49C128.791 49 127 50.7909 127 53C127 55.2091 128.791 57 131 57Z" fill="#677A9E"/>
<path opacity="0.6" d="M107 69C109.209 69 111 67.2091 111 65C111 62.7909 109.209 61 107 61C104.791 61 103 62.7909 103 65C103 67.2091 104.791 69 107 69Z" fill="#677A9E"/>
<path d="M119 69C121.209 69 123 67.2091 123 65C123 62.7909 121.209 61 119 61C116.791 61 115 62.7909 115 65C115 67.2091 116.791 69 119 69Z" fill="#677A9E"/>
<path opacity="0.6" d="M131 69C133.209 69 135 67.2091 135 65C135 62.7909 133.209 61 131 61C128.791 61 127 62.7909 127 65C127 67.2091 128.791 69 131 69Z" fill="#677A9E"/>
<path d="M107 81C109.209 81 111 79.2091 111 77C111 74.7909 109.209 73 107 73C104.791 73 103 74.7909 103 77C103 79.2091 104.791 81 107 81Z" fill="#677A9E"/>
<path opacity="0.6" d="M119 81C121.209 81 123 79.2091 123 77C123 74.7909 121.209 73 119 73C116.791 73 115 74.7909 115 77C115 79.2091 116.791 81 119 81Z" fill="#677A9E"/>
<path d="M131 81C133.209 81 135 79.2091 135 77C135 74.7909 133.209 73 131 73C128.791 73 127 74.7909 127 77C127 79.2091 128.791 81 131 81Z" fill="#677A9E"/>
</svg>
