<svg xmlns="http://www.w3.org/2000/svg" width="407.7" height="57.4" viewBox="0 0 407.7 57.4"><title>Element 10</title><path d="M49.6,43.1A12.3,12.3,0,0,1,48,49.6,13,13,0,0,1,43.4,54a21.8,21.8,0,0,1-6.7,2.6,38.2,38.2,0,0,1-8.1.8H0V1.6H33.8a11.9,11.9,0,0,1,5.5,1.3,13.6,13.6,0,0,1,4.2,3.3,14.8,14.8,0,0,1,2.7,4.6,15,15,0,0,1,.9,5.2A14.7,14.7,0,0,1,45,23.4a13,13,0,0,1-6.3,5.4,15.5,15.5,0,0,1,7.9,4.9Q49.6,37.2,49.6,43.1ZM16,14.6v8.6H26.9a5.4,5.4,0,0,0,3-.9q1.4-.9,1.4-3.5a4.1,4.1,0,0,0-1.1-3.3,4,4,0,0,0-2.7-1ZM33.3,40a5.2,5.2,0,0,0-1.1-3.4,3.7,3.7,0,0,0-3-1.4H16v9.4H28.7A4.9,4.9,0,0,0,32,43.3,4.2,4.2,0,0,0,33.3,40Z" style="fill:#fff"/><path d="M56.7,57.4V1.6h16V22.8L90.4,1.6h18.1l-21.2,25L110,57.4H91.6L77.1,36.9l-4.4,4.4V57.4Z" style="fill:#fff"/><path d="M113.3,57.4V1.6h16V44.1h26.4V57.4Z" style="fill:#fff"/><path d="M165.3,1.6l10.4,24.2L186.4,1.6h17.4L183.7,38.9V57.4H167.8V38.8L148,1.6Z" style="fill:#fff"/><path d="M224.2,30V57.4h-16V1.6h12.5L244.1,30V1.6h16V57.4H247.3Z" style="fill:#fff"/><path d="M283.1,0,281,10.3h4.3V22.9H269.1V9.9L272.6,0Z" style="fill:#fff"/><rect x="293.7" y="40.2" width="114" height="17" style="fill:#fff"/><rect x="293.7" y="0.2" width="114" height="17" style="fill:#fff"/><rect x="293.7" y="20.2" width="114" height="17" style="fill:#fff"/></svg>