<svg width="60" height="60" viewBox="0 0 60 60" fill="none" xmlns="http://www.w3.org/2000/svg">
<rect opacity="0.6" x="15" y="52" width="30" height="2" fill="#586A74"/>
<rect x="22" y="46" width="16" height="3" fill="#586A74"/>
<rect opacity="0.15" x="12" y="6" width="36" height="36" rx="4" fill="#586A74"/>
<path d="M30 12C23.373 12 18 17.373 18 24C18 30.627 23.373 36 30 36C36.627 36 42 30.627 42 24C42 17.373 36.627 12 30 12ZM34.326 30.266L30 27.952L25.674 30.265L26.537 25.436L23 22.037L27.86 21.366L30 16.951L32.14 21.366L37 22.037L33.463 25.437L34.326 30.266V30.266Z" fill="#586A74"/>
</svg>
