<!-- Copyright Unitedthemes   -->
<svg id="{{SVG_ID}}" xmlns="http://www.w3.org/2000/svg" viewBox="0 0 1920 480" preserveAspectRatio="none">
    {{SVG_STYLE_ID}}
    {{SVG_DEF_ID}}
    <path {{SVG_FILL_2_ID}} class="{{SVG_PATH_2_CLASS}} bklyn-section-separator-path-fill" d="M1920,480.3H0C59.7,100.1,130.8,10,190,8.3c40.8-1.1,53.2,43,161.4,55c155.4,17.2,180.6-52,226.6-19 c56,40.2-16.8,86.5,10.9,153.6C616,263.3,785.8,230.6,812,301.3c19.7,53.3-65.1,124.1-40.3,137.4c35.4,19,345-3.6,410.4-97.9	c34.8-50.3,14.7-65.1,45-99.3c88.6-100.2,108.4-53.8,247.9-88.2c153.6-37.9,97-107,200-130C1956-39.4,1797,150.3,1920,480.3z"/>
    <path {{SVG_FILL_1_ID}} class="{{SVG_PATH_1_CLASS}} bklyn-section-separator-path-fill" d="M1920,480.3H0c129.9-133.3,304.5-208.9,395-220c261.7-32.1,351.2,153,681.7,133c173.3-10.5,217.8-52.6,397.8-56 C1674.6,333.5,1809.7,424,1920,480.3z"/>
</svg>