<!-- Copyright Unitedthemes   -->
<svg id="{{SVG_ID}}" xmlns="http://www.w3.org/2000/svg" viewBox="0 0 1024 235.5" preserveAspectRatio="none">
    {{SVG_STYLE_ID}}
    {{SVG_DEF_ID}}    
    <path {{SVG_FILL_2_ID}} class="{{SVG_PATH_2_CLASS}} bklyn-section-separator-path-fill" d="M1000.5,34.3c-20.6,23.8-45.8,44.5-72.5,60.1C867.9,129.9,799.7,140,733.3,137c-81.8-3.6-159.9-28.5-236.8-54.6 c-73.5-25.6-145.8-45.9-222.9-50c-84.2-4.1-174,0.3-257,22.5c-0.3,0-5.3,1.3-16.6,5c0,0.8,0,1.5,0,2.3c0,0.9,0,1.8,0,2.7 c0,0.8,0,1.5,0,2.3c101.8-31.1,185-33.9,260.8-31c75.8,3.4,145.7,28.7,220.2,55.7c91.2,33.1,170.9,64.7,258,69.1 c128.7,6.5,201.1-28.5,244.7-63c-16.9,16.2-35.9,29.9-55.7,40.6c-60.1,32.4-128.3,39-194.7,35.2c-81.8-4.8-159.9-28.3-236.8-56.6 C423,89.8,350.8,63.9,273.7,55.7c-84.2-9-174-3.9-257,23.1c-0.3,0-5.3,1.6-16.6,5.8c0,1.6,0,8.5,0,8.7 c56.2-20.2,115.5-29.1,173.6-29c80-0.1,155.1,19.6,229.8,46.8c133.6,49.9,268,96.3,411.2,92.6c6.7-0.1,13.4-0.4,20.2-0.8 c14.3-0.7,29.3-2.1,44.5-4.3c25.3-2.2,50.3-6.6,74.7-14.3c23.8-7.6,49.4-19.2,69.9-38c0-3.5,0-7.1,0-10.6c0-2,0-3.9,0-5.9 c0-23.7,0-47.3,0-71c0-4.5,0-9,0-13.5c0-0.1,0-0.2,0-0.3c0-4.2,0-8.4,0-12.5c-30.2,35.9-71.7,66.8-111.7,84.3 C860.5,140,806.2,145.8,751.5,144c-0.2,0-0.4,0-0.6,0c-5.1-0.2-10.1-0.4-15.2-0.7c59.4,2.6,118.7-2.7,174.5-28.7 c41.6-18.9,84.3-52.4,113.9-90.3c0-1.8,0-3.5,0-5.3c0-4.5,0-9,0-13.5C1016.6,14.9,1009.4,23.9,1000.5,34.3z M951.4,170.6 c-9.2,3.4-33.1,12.3-57.3,17c-22.6,4.5-45.5,7.1-68.5,8.1c-50.5,2.2-101.3-2.3-151.4-11.5c-46-8.4-91-21.5-135.3-36.6 c-25-8.5-49.9-17.7-74.4-26.9c-10.2-4-43.7-17.3-51.7-19.8c15.2,4,37,12.5,53.8,18.2c24.2,8.2,49.6,17,74.1,24.7 c44.5,14.1,89.6,26.6,135.3,34.9c49.7,9,100,13.8,150.1,12.5c23.7-0.7,47.3-2.8,70.7-6.8C906.1,183.1,941.8,173.9,951.4,170.6 c0.6-0.2,1.1-0.4,1.6-0.6C952.6,170.2,952,170.4,951.4,170.6z"/>
    <path {{SVG_FILL_1_ID}} class="{{SVG_PATH_1_CLASS}} bklyn-section-separator-path-fill" d="M853.4,218.5c-88.1,2-176.9-11.2-262.2-35c-69.4-18.8-136.7-48.5-204.7-71.7c-68-23.5-136.5-40.4-208.3-41.6 C118.6,69,57.5,75.6,0.1,97.2c0,2.2,0,57,0,60.3c58.4-27,107.8-35.9,141.9-39c86.3-7.9,165.1,13.7,322.8,56.8 c16.9,4.6,30.8,8.6,40.1,11.3c0,0,0,0,0,0c23.5,6.9,47.3,12.7,71.4,17.3c21,4.6,42.2,8.7,63.5,12.3c2.1,0.3,4.2,0.6,6.3,1 c-61.9-11.4-122.3-28.3-182.4-49.6c-2.5-0.9-5-1.8-7.5-2.7c-3.9-1.4-7.8-2.8-11.8-4.2c-74.4-27.3-149.6-57.9-227.1-65.7	c-71.7-7.8-144.2-1.4-213.4,26c31.3-13.6,79.7-30.6,140-34.5c102.7-6.7,192.7,27.5,279,60.3c0,0,100.5,38.1,176.4,56.7 c9.3,2.3,18.6,4.4,27.9,6.4c1.7,0.4,3.4,0.7,5.1,1.1c1.7,0.4,3.4,0.7,5.1,1.1c63.9,12.8,128.6,18.9,193.4,19.8 c60.8,0,133.6,0.5,189.1-37.6c0,0.3,0,0.7,0,1c-52.3,36.7-120.1,37.9-178,38.7c-33.8,0.5-76.1,2.1-165.7-11.8	c-184.7-28.7-351.2-82-479.3-84.7c-21.9-0.5-39.3,0.6-53,2c-63,6.3-112.5,25.2-144,40c0,7.6-0.1,15.2-0.1,22.9 c-0.1,11.2-0.1,22.4-0.2,33.6l1024.3-0.1c0,0,0-55.8,0-59.6C972.3,210.4,910.5,216.7,853.4,218.5z"/>    
</svg>