<!-- Copyright Unitedthemes   -->
<svg id="{{SVG_ID}}" xmlns="http://www.w3.org/2000/svg" viewBox="0 0 1920 460" preserveAspectRatio="none">
    {{SVG_STYLE_ID}}
    {{SVG_DEF_ID}}    
    <path {{SVG_FILL_2_ID}} class="{{SVG_PATH_2_CLASS}} bklyn-section-separator-path-fill" d="M1889.1,169.3l-4.5-6.2l11.2-8.1l-2.1-3l-11.8,8.5l-8.6-1.4l8.8-6.4l-2.2-3l-11.8,8.5l-9.7-1.6
	c0.2-1.7,0-3.4-0.6-5l7.6-5.5l14.4,2.3l0.6-3.6l-10.8-1.7l7-5.1l14.4,2.3l0.6-3.6l-13.6-2.2l2.2-13.6l-3.6-0.6l-2.3,14.4l-7,5.1
	l1.7-10.8l-3.6-0.6l-2.3,14.4l-7.3,5.3c-0.7-0.8-1.6-1.6-2.5-2.2c-0.6-0.4-1.3-0.7-2-1l1.4-8.9l11.8-8.5l-2.2-3l-8.8,6.4l1.4-8.6
	l11.8-8.5l-2.2-3l-11.2,8.1l-8.1-11.2l-3,2.2l8.5,11.8l-1.4,8.6l-6.4-8.8l-3,2.2l8.5,11.8l-1.4,8.8c-1.8,0-3.6,0.5-5.2,1.4l-5.5-7.6
	l2.3-14.4l-3.6-0.6l-1.7,10.8l-5.1-7l2.3-14.4l-3.6-0.6l-2.2,13.6l-13.6-2.2l-0.6,3.6l14.4,2.3l5.1,7l-10.8-1.7l-0.6,3.6l14.4,2.3
	l5.6,7.8c-0.3,0.4-0.7,0.8-1,1.3c-0.6,0.9-1,1.9-1.2,2.9l-10.1-1.6l-8.5-11.8l-3,2.2l6.4,8.8l-8.6-1.4l-8.5-11.8l-3,2.1l8.1,11.2
	l-11.2,8.1l2.2,3l11.8-8.5l8.6,1.4l-8.8,6.4l2.2,3l11.8-8.5l10.5,1.7c0.1,1.4,0.5,2.7,1.2,3.9l-9,6.5l-14.4-2.3l-0.6,3.6l10.8,1.7
	l-7,5.1l-14.4-2.3l-0.6,3.6l13.6,2.2l-2.2,13.6l3.6,0.6l2.3-14.4l7-5.1l-1.7,10.8l3.6,0.6l2.3-14.4l9.1-6.6c0.5,0.4,1,0.8,1.6,1.2
	c0.5,0.3,1,0.5,1.5,0.8l-1.8,11.4l-11.8,8.5l2.2,3l8.8-6.4l-1.4,8.6l-11.8,8.5l2.2,3l11.2-8.1l5.3,7.3
	c-178.9,131-275.1,164.5-368.9,172.5c-51.1,4.4-97.9,6-141,5.3l0.9-5.5l17.4,2.8l0.7-4.6l-18.4-3l-6.5-9l13.8,2.2l0.7-4.6l-18.4-3
	l-8-11.1c1.2-1,2.2-2.1,3.1-3.5c0.2-0.3,0.3-0.5,0.4-0.8l13.1,2.1l10.9,15.1l3.8-2.8l-8.2-11.3l11,1.8l10.9,15.1l3.8-2.8l-10.3-14.3
	l14.3-10.3l-2.8-3.8l-15.1,10.9l-11-1.8l11.3-8.2l-2.8-3.8l-15.1,10.9l-12.4-2c0.3-2.2,0-4.4-0.7-6.4l9.8-7.1l18.4,3l0.8-4.6
	l-13.8-2.2l9-6.5l18.4,3l0.7-4.6l-17.4-2.8l2.8-17.4l-4.6-0.7l-3,18.4l-9,6.5l2.2-13.8l-4.6-0.7l-3,18.4l-9.4,6.8
	c-0.9-1.1-2-2-3.3-2.8c-0.8-0.5-1.7-0.9-2.5-1.2l1.8-11.4l15.1-10.9l-2.8-3.8l-11.3,8.2l1.8-11l15.1-10.9l-2.8-3.8l-14.3,10.3
	l-10.3-14.3l-3.8,2.8l10.9,15.1l-1.8,11l-8.2-11.3l-3.8,2.8l10.9,15.1l-1.8,11.3c-2.3,0-4.6,0.6-6.6,1.7l-7-9.7l3-18.4l-4.6-0.7
	l-2.2,13.8l-6.5-9l3-18.4l-4.6-0.7l-2.8,17.4l-17.4-2.8l-0.7,4.6l18.4,3l6.5,9l-13.8-2.2l-0.7,4.6l18.4,3l7.2,10
	c-0.4,0.5-0.9,1.1-1.2,1.7c-0.7,1.2-1.3,2.4-1.6,3.7l-13-2.1l-10.9-15.1l-3.8,2.8l8.2,11.3l-11-1.8l-10.9-15.1l-3.8,2.8l10.3,14.3
	l-14.3,10.3l2.8,3.8l15.1-10.9l11,1.8l-11.3,8.2l2.8,3.8l15.1-10.9l13.4,2.2c0.2,1.7,0.7,3.4,1.5,5l-11.6,8.3l-18.4-3l-0.7,4.6
	l13.8,2.2l-9,6.5l-18.4-3l-0.7,4.6l17.4,2.8l-2.2,13.8c-251.2-20.2-367-125.2-507-199.9l3.3,0.3l1.6-17.6l17.6,1.6l0.4-4.7
	l-18.6-1.7l-7.1-8.6l13.9,1.3l0.4-4.7l-18.6-1.7l-8.8-10.5c1.1-1,2.1-2.3,2.8-3.7c0.1-0.3,0.3-0.5,0.4-0.8l13.2,1.2l12,14.4l3.6-3
	l-8.9-10.7l11.1,1l11.9,14.4l3.6-3L782.2,126l13.6-11.3l-3-3.6l-14.4,12l-11.1-1l10.7-8.9l-3-3.6l-14.4,11.9l-12.5-1.1
	c0.1-2.2-0.3-4.4-1.2-6.4l9.3-7.7l18.6,1.7l0.4-4.7l-13.9-1.3l8.6-7.1l18.6,1.7l0.4-4.7l-17.6-1.6l1.6-17.6l-4.7-0.4l-1.7,18.6
	l-8.6,7.1l1.3-13.9l-4.7-0.4l-1.7,18.6l-8.9,7.4c-1-1-2.1-1.9-3.4-2.5c-0.8-0.4-1.7-0.8-2.6-1.1l1.1-11.5l14.4-11.9l-3-3.6
	l-10.7,8.9l1-11.1l14.4-12l-3-3.6l-13.6,11.3l-11.3-13.6l-3.6,3l12,14.4l-1,11.1l-8.9-10.7l-3.6,3L734,94l-1,11.4
	c-2.3,0.2-4.5,0.9-6.5,2.2l-7.7-9.2l1.7-18.6l-4.7-0.4l-1.3,13.9l-7.1-8.6l1.7-18.6l-4.7-0.4l-1.6,17.6l-17.6-1.6l-0.4,4.7l18.6,1.7
	l7.1,8.6l-13.9-1.3l-0.4,4.7l18.6,1.7l7.9,9.5c-0.4,0.6-0.8,1.1-1.1,1.8c-0.6,1.2-1.1,2.5-1.3,3.8l-13.1-1.2l-12-14.4l-3.6,3
	l8.9,10.7l-11.1-1l-12-14.4l-3.6,3l11.3,13.6l-13.6,11.3l3,3.6l14.4-12l11.1,1l-10.7,8.9l3,3.6l14.4-11.9l13.5,1.2
	c0.3,1.7,0.9,3.4,1.8,4.9l-11,9.1l-18.6-1.7l-0.4,4.7l13.9,1.3l-7.6,6.4c-85-36.1-185.1-57.3-329.2-42.6c-71,7.2-138,50.5-215.9,82
	l-11.4-1.8l-6.5-9l13.8,2.2l0.7-4.6l-18.4-3l-8-11.1c1.2-1,2.2-2.1,3.1-3.5c0.2-0.3,0.3-0.5,0.4-0.8l13.1,2.1l10.9,15.1l3.8-2.8
	l-8.2-11.3l11,1.8l10.9,15.1l3.8-2.8l-10.3-14.3l14.3-10.3l-2.8-3.8l-15.1,10.9l-11-1.8l11.3-8.2l-2.8-3.8l-15.1,10.9l-12.4-2
	c0.3-2.2,0-4.4-0.7-6.4l9.8-7.1l18.4,3l0.8-4.6l-13.8-2.2l9-6.5l18.4,3l0.7-4.6l-17.4-2.8l2.8-17.4l-4.6-0.7l-3,18.4l-9,6.5
	l2.2-13.8l-4.6-0.7l-3,18.4l-9.4,6.8c-0.9-1.1-2-2-3.3-2.8c-0.8-0.5-1.7-0.9-2.5-1.2l1.8-11.4l15.1-10.9l-2.8-3.8l-11.3,8.2l1.8-11
	L139,94.4l-2.8-3.8L121.9,101l-10.3-14.3l-3.8,2.8l10.9,15.1l-1.8,11l-8.2-11.3l-3.8,2.8l10.9,15.1l-1.8,11.3
	c-2.3,0-4.6,0.6-6.6,1.7l-7-9.7l3-18.4l-4.6-0.7L96.4,120l-6.5-9l3-18.4l-4.6-0.7l-2.8,17.4L68,106.5l-0.7,4.6l18.4,3l6.5,9
	l-13.8-2.2l-0.7,4.6l18.4,3l7.2,10c-0.4,0.5-0.9,1.1-1.2,1.7c-0.7,1.2-1.3,2.4-1.6,3.7l-13-2.1l-10.9-15.1l-3.8,2.8l8.2,11.3
	l-11-1.8L59,123.8l-3.8,2.8l10.3,14.3l-14.3,10.3l2.8,3.8l15.1-10.9l11,1.8l-11.3,8.2l2.8,3.8L86.7,147l13.4,2.2
	c0.2,1.7,0.7,3.4,1.5,5L90,162.4l-18.4-3l-0.7,4.6l13.8,2.2l-9,6.5l-18.4-3l-0.7,4.6l17.4,2.8L71,194.8l4.6,0.7l3-18.4l9-6.5
	l-2.2,13.8l4.6,0.7l3-18.4l11.7-8.4c0.6,0.5,1.3,1.1,2,1.5c0.6,0.4,1.3,0.7,1.9,1l-2.3,14.6l-15.1,10.9l2.8,3.8l11.3-8.2l-1.8,11
	l-15.1,10.9l2.4,3.3c-28.4,7.5-58.4,12.2-90.7,12.4v242h1920c0-87.4,0-228.6,0-316C1909.4,153.7,1899.2,161.7,1889.1,169.3z
	 M141.9,189l2.6,0.4c-1,0.4-1.9,0.7-2.9,1.1L141.9,189z M110.4,182.7l8.2,11.3l3.8-2.8l-10.9-15.1l2.3-14.3c1.6,0,3.2-0.2,4.8-0.7
	l8.4,11.6l-3,18.4l4.6,0.7l2.2-13.8l6.5,9l-0.8,5.2c-7.6,2.8-15.2,5.5-23,8l-4.9-6.7L110.4,182.7z M105.4,197.2l3.4,4.6
	c-5.4,1.7-10.8,3.2-16.3,4.7L105.4,197.2z M1308.8,346.8c1.6,0,3.2-0.2,4.8-0.7l8.4,11.6l-3,18.4l4.6,0.7l2.2-13.8l6.5,9l-1.1,7.1
	c-5.9-0.1-11.7-0.3-17.4-0.5l3.6-2.6l-10.9-15.1L1308.8,346.8z M1313.5,378.8c-3.3-0.1-6.6-0.3-9.8-0.4l1.7-10.8L1313.5,378.8z
	 M1273.6,362.1l9-6.5l-2.2,13.8l4.6,0.7l3-18.4l11.7-8.4c0.6,0.5,1.3,1.1,2,1.5c0.6,0.4,1.3,0.7,1.9,1l-2.3,14.6l-15.1,10.9l2.8,3.8
	l11.3-8.2l-1.8,11l-0.5,0.3c-9.1-0.5-18-1-26.7-1.7L1273.6,362.1z M741.7,165.6l3.6-3l-11.9-14.4l1.3-14.4c1.6-0.1,3.2-0.4,4.7-1
	l9.2,11l-1.7,18.6l4.7,0.4l1.3-13.9l7.1,8.6l-1.7,18c-8.6-4.6-17.4-9.1-26.2-13.4l0.7-7.3L741.7,165.6z M723.3,157.9l4.3-3.5
	l-0.5,5.3C725.8,159.1,724.5,158.5,723.3,157.9z M725.4,130.8c0.7,0.5,1.3,1,2.1,1.4c0.7,0.3,1.3,0.6,2,0.8l-1.3,14.7l-9.6,8
	c-1.8-0.8-3.6-1.7-5.5-2.5l1.2-13.1L725.4,130.8z M709.2,144.3l-0.6,6.8c-1.6-0.7-3.3-1.5-5-2.2L709.2,144.3z M1856.9,161.4
	c0.1-0.2,0.2-0.4,0.3-0.6l10.2,1.7l8.5,11.8l3-2.1l-6.4-8.8l8.6,1.4l5,6.9c-5.6,4.3-11.2,8.5-16.7,12.6l-0.6-0.1l-5.1-7l10.8,1.7
	l0.6-3.6l-14.4-2.3l-6.3-8.7C1855.4,163.4,1856.3,162.5,1856.9,161.4z M1843.2,191.5l1.4-8.6l6.4,8.8l3-2.2l-8.5-11.8l1.8-11.1
	c1.3,0,2.5-0.1,3.7-0.5l6.6,9.1l-2.3,14.4l3.6,0.6l1.7-10.8l5.1,7l-0.1,0.7c-5.6,4.2-11.1,8.3-16.6,12.3L1843.2,191.5z"/>

    <path {{SVG_FILL_3_ID}} class="{{SVG_PATH_3_CLASS}} bklyn-section-separator-path-fill" d="M528.2,11.8c0,5.5,4.4,9.9,9.9,9.9c5.5,0,9.9-4.4,9.9-9.9c0-5.5-4.4-9.9-9.9-9.9 C532.6,1.8,528.2,6.3,528.2,11.8z"/>
    <path {{SVG_FILL_3_ID}} class="{{SVG_PATH_3_CLASS}} bklyn-section-separator-path-fill" d="M538.5,42.1c-5,0-9.1,4.1-9.1,9.1c0,5,4.1,9.1,9.1,9.1c5,0,9.1-4.1,9.1-9.1C547.6,46.2,543.6,42.1,538.5,42.1z"/>
    <path {{SVG_FILL_3_ID}} class="{{SVG_PATH_3_CLASS}} bklyn-section-separator-path-fill" d="M419,19.3c0-6.1-4.9-11-11-11c-6.1,0-11,4.9-11,11c0,6.1,4.9,11,11,11C414,30.2,419,25.4,419,19.3z"/>
    <path {{SVG_FILL_3_ID}} class="{{SVG_PATH_3_CLASS}} bklyn-section-separator-path-fill" d="M482.6,47.8c-2.5,0-4.6,2-4.6,4.6c0,2.5,2,4.6,4.6,4.6c2.5,0,4.6-2.1,4.6-4.6C487.1,49.9,485.1,47.8,482.6,47.8 z"/>    
    <path {{SVG_FILL_3_ID}} class="{{SVG_PATH_3_CLASS}} bklyn-section-separator-path-fill" d="M434.5,39.3c2.8,0,5.1-2.3,5.1-5.1c0-2.9-2.3-5.1-5.1-5.1c-2.8,0-5.1,2.3-5.1,5.1 C429.4,37,431.7,39.3,434.5,39.3z"/>
    <path {{SVG_FILL_3_ID}} class="{{SVG_PATH_3_CLASS}} bklyn-section-separator-path-fill" d="M1049.2,212.3c-2.4,4.9-0.4,10.8,4.5,13.3c4.9,2.4,10.8,0.4,13.2-4.5c2.4-4.9,0.4-10.8-4.5-13.3 C1057.6,205.3,1051.6,207.3,1049.2,212.3z"/>
    <path {{SVG_FILL_3_ID}} class="{{SVG_PATH_3_CLASS}} bklyn-section-separator-path-fill" d="M1044.7,245c-4.5-2.2-10-0.3-12.2,4.2c-2.2,4.5-0.3,10,4.2,12.2c4.5,2.2,10,0.3,12.2-4.2 C1051.1,252.6,1049.3,247.2,1044.7,245z"/>
    <path {{SVG_FILL_3_ID}} class="{{SVG_PATH_3_CLASS}} bklyn-section-separator-path-fill" d="M995.4,151.9c2.7-5.4,0.4-12-5.1-14.7c-5.4-2.7-12-0.4-14.7,5c-2.7,5.5-0.4,12,5,14.7 C986.1,159.6,992.7,157.4,995.4,151.9z"/>
    <path {{SVG_FILL_3_ID}} class="{{SVG_PATH_3_CLASS}} bklyn-section-separator-path-fill" d="M992,225.5c-2.3-1.1-5-0.2-6.1,2.1c-1.1,2.3-0.2,5,2.1,6.1c2.3,1.1,5,0.2,6.1-2.1 C995.2,229.3,994.2,226.6,992,225.5z"/>
    <path {{SVG_FILL_3_ID}} class="{{SVG_PATH_3_CLASS}} bklyn-section-separator-path-fill" d="M983.5,196.7c2.5,1.2,5.6,0.2,6.9-2.3c1.3-2.6,0.2-5.6-2.4-6.9c-2.6-1.2-5.6-0.2-6.9,2.4 C980,192.4,981,195.5,983.5,196.7z"/>
    <path {{SVG_FILL_3_ID}} class="{{SVG_PATH_3_CLASS}} bklyn-section-separator-path-fill" d="M1654.1,237.3c1.7,5.2,7.3,8,12.5,6.3c5.2-1.7,8-7.3,6.3-12.5c-1.7-5.2-7.3-8-12.5-6.3 C1655.2,226.5,1652.4,232.1,1654.1,237.3z"/>
    <path {{SVG_FILL_3_ID}} class="{{SVG_PATH_3_CLASS}} bklyn-section-separator-path-fill" d="M1673.8,263.8c-4.8,1.6-7.4,6.7-5.8,11.5c1.6,4.8,6.7,7.4,11.5,5.8c4.8-1.6,7.4-6.7,5.8-11.5 C1683.7,264.8,1678.6,262.2,1673.8,263.8z"/>
    <path {{SVG_FILL_3_ID}} class="{{SVG_PATH_3_CLASS}} bklyn-section-separator-path-fill" d="M1553.1,279.7c-1.9-5.7-8.1-8.9-13.9-7c-5.7,1.9-8.9,8.1-7,13.9c1.9,5.8,8.1,8.9,13.9,7 C1551.9,291.6,1555,285.4,1553.1,279.7z"/>
    <path {{SVG_FILL_3_ID}} class="{{SVG_PATH_3_CLASS}} bklyn-section-separator-path-fill" d="M1622.5,286.8c-2.4,0.8-3.7,3.4-2.9,5.8c0.8,2.4,3.4,3.7,5.8,2.9c2.4-0.8,3.7-3.4,2.9-5.8 C1627.5,287.3,1624.9,286,1622.5,286.8z"/>
    <path {{SVG_FILL_3_ID}} class="{{SVG_PATH_3_CLASS}} bklyn-section-separator-path-fill" d="M1574.2,293.8c2.7-0.9,4.2-3.8,3.3-6.5c-0.9-2.7-3.8-4.1-6.5-3.3c-2.7,0.9-4.1,3.8-3.2,6.5 C1568.6,293.2,1571.5,294.7,1574.2,293.8z"/>
    
    <path {{SVG_FILL_3_ID}} class="{{SVG_PATH_3_CLASS}} bklyn-section-separator-path-fill" d="M328.7,58.2L328.7,58.2L328.7,58.2l13.7,6.2l-10.3-7l12-3.1l-15,1.1l0,0l0,0l-0.1,0l-2.2-0.4l4.2-7l4.9,2.2
	l-4.4-3l2.6-4.4l-3.4,3.9l-6.7-4.5l1.8-1.3l0.1,0l0,0l0,0l14-5.3l-12.2,2.3l6.3-10.7l-9.8,11.4l0,0l0,0l-0.1,0.1l-1.8,1.3l-2-7.9
	l5-1.9l-5.2,1l-1.3-5l0.4,5.1l-7.9,1.5l0.4-2.2l0.1-0.1l0,0l0,0l6.2-13.7l-7,10.3l-3.1-12l1.1,15l0,0l0,0l0,0.1l-0.4,2.2l-7-4.2
	l2.2-4.9l-3,4.4l-4.4-2.6l3.9,3.4l-4.5,6.7l-1.3-1.8l0-0.1l0,0l0,0l-5.3-14l2.3,12.2l-10.7-6.3l11.4,9.8l0,0l0,0l0.1,0.1l1.3,1.8
	l-7.9,2l-1.9-5l1,5.2l-5,1.3l5.1-0.4l1.5,7.9l-2.2-0.4l-0.1-0.1l0,0l0,0l-13.7-6.2l10.3,7l-12,3.1l15-1.1l0,0l0,0l0.1,0l2.2,0.4
	l-4.2,7l-4.9-2.2l4.4,3l-2.6,4.4l3.4-3.9l6.7,4.5l-1.8,1.3l-0.1,0l0,0l0,0l-14,5.3l12.2-2.3l-6.3,10.7l9.8-11.4l0,0l0,0l0.1-0.1
	l1.8-1.3l2,7.9l-5,1.9l5.2-1l1.3,5l-0.4-5.1l7.9-1.5l-0.4,2.2l-0.1,0.1l0,0l0,0l-6.2,13.7l7-10.3l3.1,12l-1.1-15l0,0l0,0l0-0.1
	l0.4-2.2l7,4.2l-2.2,4.9l3-4.4l4.4,2.6l-3.9-3.4l4.5-6.7l1.3,1.8l0,0.1l0,0l0,0l5.3,14l-2.3-12.2l10.7,6.3l-11.4-9.8l0,0l0,0
	l-0.1-0.1l-1.3-1.8l7.9-2l1.9,5l-1-5.2l5-1.3l-5.1,0.4l-1.5-7.9l2.2,0.4L328.7,58.2z M321.3,54l-0.7-0.1l-0.7-1.4c0,0.1,0,0.2,0,0.2
	c0,1.6-0.3,3.2-0.8,4.6l0.7-0.7l1.3,0.2l2.6,3.7l-1.7-3.5l1.3,0.2l3.3,8.5l-9.2,0.6l-0.9-1.3l4,0l-4.6-0.9l-0.4-0.6l0.5-1.3
	c-1.1,1.1-2.4,2.1-3.9,2.8l0.9,0l0.8,1.1l-0.7,4.5l1.3-3.7l0.8,1.1l-3.7,8.3l-7-6.1l0.3-1.6l2.8,2.9l-2.6-3.9l0.1-0.7l1.4-0.7
	c0,0,0,0-0.1,0c-1.7,0-3.3-0.3-4.8-0.9l0.8,0.8l-0.2,1.3l-3.7,2.6l3.5-1.7l-0.2,1.3l-8.5,3.3l-0.6-9.2l1.3-0.9l0,4l0.9-4.6l0.6-0.4
	l1.6,0.6c-1.3-1.2-2.3-2.7-3-4.4l0,1.3l-1.1,0.8l-4.5-0.7l3.7,1.3l-1.1,0.8l-8.3-3.7l6.1-7l1.6,0.3l-2.9,2.8l3.9-2.6l0.7,0.1
	l0.8,1.7c0-0.1,0-0.3,0-0.4c0-1.8,0.4-3.5,1-5.1l-1,1l-1.3-0.2l-2.6-3.7l1.7,3.5l-1.3-0.2l-3.3-8.5l9.2-0.6l0.9,1.3l-4,0l4.6,0.9
	l0.4,0.6l-0.7,1.9c1.3-1.4,2.8-2.5,4.6-3.3l-1.4,0l-0.8-1.1l0.7-4.5l-1.3,3.7l-0.8-1.1l3.7-8.3l7,6.1l-0.3,1.6l-2.8-2.9l2.6,3.9
	l-0.1,0.7l-1.7,0.8c0.2,0,0.4,0,0.6,0c1.7,0,3.3,0.3,4.8,0.9l-0.9-0.9l0.2-1.3l3.7-2.6l-3.5,1.7l0.2-1.3l8.5-3.3l0.6,9.2l-1.3,0.9
	l0-4l-0.9,4.6l-0.6,0.4l-1.6-0.6c1.2,1.2,2.3,2.6,3,4.2l0-1.1l1.1-0.8l4.5,0.7l-3.7-1.3l1.1-0.8l8.3,3.7l-6.1,7l-1.6-0.3l2.9-2.8
	L321.3,54z"/>
    
    <path {{SVG_FILL_3_ID}} class="{{SVG_PATH_3_CLASS}} bklyn-section-separator-path-fill" d="M648.7,54.2L648.7,54.2L648.7,54.2l13.7,6.2l-10.3-7l12-3.1l-15,1.1l0,0l0,0l-0.1,0l-2.2-0.4l4.2-7l4.9,2.2
	l-4.4-3l2.6-4.4l-3.4,3.9l-6.7-4.5l1.8-1.3l0.1,0l0,0l0,0l14-5.3l-12.2,2.3l6.3-10.7l-9.8,11.4l0,0l0,0l-0.1,0.1l-1.8,1.3l-2-7.9
	l5-1.9l-5.2,1l-1.3-5l0.4,5.1l-7.9,1.5l0.4-2.2l0.1-0.1l0,0l0,0l6.2-13.7l-7,10.3l-3.1-12l1.1,15l0,0l0,0l0,0.1l-0.4,2.2l-7-4.2
	l2.2-4.9l-3,4.4l-4.4-2.6l3.9,3.4l-4.5,6.7l-1.3-1.8l0-0.1l0,0l0,0l-5.3-14l2.3,12.2l-10.7-6.3l11.4,9.8l0,0l0,0l0.1,0.1l1.3,1.8
	l-7.9,2l-1.9-5l1,5.2l-5,1.3l5.1-0.4l1.5,7.9l-2.2-0.4l-0.1-0.1l0,0l0,0l-13.7-6.2l10.3,7l-12,3.1l15-1.1l0,0l0,0l0.1,0l2.2,0.4
	l-4.2,7l-4.9-2.2l4.4,3l-2.6,4.4l3.4-3.9l6.7,4.5l-1.8,1.3l-0.1,0l0,0l0,0l-14,5.3l12.2-2.3l-6.3,10.7l9.8-11.4l0,0l0,0l0.1-0.1
	l1.8-1.3l2,7.9l-5,1.9l5.2-1l1.3,5l-0.4-5.1l7.9-1.5l-0.4,2.2l-0.1,0.1l0,0l0,0l-6.2,13.7l7-10.3l3.1,12l-1.1-15l0,0l0,0l0-0.1
	l0.4-2.2l7,4.2l-2.2,4.9l3-4.4l4.4,2.6l-3.9-3.4l4.5-6.7l1.3,1.8l0,0.1l0,0l0,0l5.3,14l-2.3-12.2l10.7,6.3l-11.4-9.8l0,0l0,0
	l-0.1-0.1l-1.3-1.8l7.9-2l1.9,5l-1-5.2l5-1.3l-5.1,0.4l-1.5-7.9l2.2,0.4L648.7,54.2z M641.3,50l-0.7-0.1l-0.7-1.4c0,0.1,0,0.2,0,0.2
	c0,1.6-0.3,3.2-0.8,4.6l0.7-0.7l1.3,0.2l2.6,3.7l-1.7-3.5l1.3,0.2l3.3,8.5l-9.2,0.6l-0.9-1.3l4,0l-4.6-0.9l-0.4-0.6l0.5-1.3
	c-1.1,1.1-2.4,2.1-3.9,2.8l0.9,0l0.8,1.1l-0.7,4.5l1.3-3.7l0.8,1.1l-3.7,8.3l-7-6.1l0.3-1.6l2.8,2.9l-2.6-3.9l0.1-0.7l1.4-0.7
	c0,0,0,0-0.1,0c-1.7,0-3.3-0.3-4.8-0.9l0.8,0.8l-0.2,1.3l-3.7,2.6l3.5-1.7l-0.2,1.3l-8.5,3.3l-0.6-9.2l1.3-0.9l0,4l0.9-4.6l0.6-0.4
	l1.6,0.6c-1.3-1.2-2.3-2.7-3-4.4l0,1.3l-1.1,0.8l-4.5-0.7l3.7,1.3l-1.1,0.8l-8.3-3.7l6.1-7l1.6,0.3l-2.9,2.8l3.9-2.6l0.7,0.1
	l0.8,1.7c0-0.1,0-0.3,0-0.4c0-1.8,0.3-3.5,1-5.1l-1,1l-1.3-0.2l-2.6-3.7l1.7,3.5l-1.3-0.2l-3.3-8.5l9.2-0.6l0.9,1.3l-4,0l4.6,0.9
	l0.4,0.6l-0.7,1.9c1.3-1.4,2.8-2.5,4.6-3.3l-1.4,0l-0.8-1.1l0.7-4.5l-1.3,3.7l-0.8-1.1l3.7-8.3l7,6.1l-0.3,1.6l-2.8-2.9l2.6,3.9
	l-0.1,0.7l-1.7,0.8c0.2,0,0.4,0,0.6,0c1.7,0,3.3,0.3,4.8,0.9l-0.9-0.9l0.2-1.3l3.7-2.6l-3.5,1.7l0.2-1.3l8.5-3.3l0.6,9.2l-1.3,0.9
	l0-4l-0.9,4.6l-0.6,0.4l-1.6-0.6c1.2,1.2,2.3,2.6,3,4.2l0-1.1l1.1-0.8l4.5,0.7l-3.7-1.3l1.1-0.8l8.3,3.7l-6.1,7l-1.6-0.3l2.9-2.8
	L641.3,50z"/>
    
    <path {{SVG_FILL_3_ID}} class="{{SVG_PATH_3_CLASS}} bklyn-section-separator-path-fill" d="M911.7,115.2L911.7,115.2L911.7,115.2l13.7,6.2l-10.3-7l12-3.1l-15,1.1l0,0l0,0l-0.1,0l-2.2-0.4l4.2-7l4.9,2.2
	l-4.4-3l2.6-4.4l-3.4,3.9l-6.7-4.5l1.8-1.3l0.1,0l0,0l0,0l14-5.3l-12.2,2.3l6.3-10.7l-9.8,11.4l0,0l0,0l-0.1,0.1l-1.8,1.3l-2-7.9
	l5-1.9l-5.2,1l-1.3-5l0.4,5.1l-7.9,1.5l0.4-2.2l0.1-0.1l0,0l0,0l6.2-13.7l-7,10.3l-3.1-12l1.1,15l0,0l0,0l0,0.1l-0.4,2.2l-7-4.2
	l2.2-4.9l-3,4.4l-4.4-2.6l3.9,3.4l-4.5,6.7l-1.3-1.8l0-0.1l0,0l0,0l-5.3-14l2.3,12.2l-10.7-6.3l11.4,9.8l0,0l0,0l0.1,0.1l1.3,1.8
	l-7.9,2l-1.9-5l1,5.2l-5,1.3l5.1-0.4l1.5,7.9l-2.2-0.4l-0.1-0.1l0,0l0,0l-13.7-6.2l10.3,7l-12,3.1l15-1.1l0,0l0,0l0.1,0l2.2,0.4
	l-4.2,7l-4.9-2.2l4.4,3l-2.6,4.4l3.4-3.9l6.7,4.5l-1.8,1.3l-0.1,0l0,0l0,0l-14,5.3l12.2-2.3l-6.3,10.7l9.8-11.4l0,0l0,0l0.1-0.1
	l1.8-1.3l2,7.9l-5,1.9l5.2-1l1.3,5l-0.4-5.1l7.9-1.5l-0.4,2.2l-0.1,0.1l0,0l0,0l-6.2,13.7l7-10.3l3.1,12l-1.1-15l0,0l0,0l0-0.1
	l0.4-2.2l7,4.2l-2.2,4.9l3-4.4l4.4,2.6l-3.9-3.4l4.5-6.7l1.3,1.8l0,0.1l0,0l0,0l5.3,14l-2.3-12.2l10.7,6.3l-11.4-9.8l0,0l0,0
	l-0.1-0.1l-1.3-1.8l7.9-2l1.9,5l-1-5.2l5-1.3l-5.1,0.4l-1.5-7.9l2.2,0.4L911.7,115.2z M904.3,111l-0.7-0.1l-0.7-1.4
	c0,0.1,0,0.2,0,0.2c0,1.6-0.3,3.2-0.8,4.6l0.7-0.7l1.3,0.2l2.6,3.7l-1.7-3.5l1.3,0.2l3.3,8.5l-9.2,0.6l-0.9-1.3l4,0l-4.6-0.9
	l-0.4-0.6l0.5-1.3c-1.1,1.1-2.4,2.1-3.9,2.8l0.9,0l0.8,1.1l-0.7,4.5l1.3-3.7l0.8,1.1l-3.7,8.3l-7-6.1l0.3-1.6l2.8,2.9l-2.6-3.9
	l0.1-0.7l1.4-0.7c0,0,0,0-0.1,0c-1.7,0-3.3-0.3-4.8-0.9l0.8,0.8l-0.2,1.3l-3.7,2.6l3.5-1.7l-0.2,1.3l-8.5,3.3l-0.6-9.2l1.3-0.9l0,4
	l0.9-4.6l0.6-0.4l1.6,0.6c-1.3-1.2-2.3-2.7-3-4.4l0,1.3l-1.1,0.8l-4.5-0.7l3.7,1.3l-1.1,0.8l-8.3-3.7l6.1-7l1.6,0.3l-2.9,2.8
	l3.9-2.6l0.7,0.1l0.8,1.7c0-0.1,0-0.3,0-0.4c0-1.8,0.3-3.5,1-5.1l-1,1l-1.3-0.2l-2.6-3.7l1.7,3.5l-1.3-0.2l-3.3-8.5l9.2-0.6l0.9,1.3
	l-4,0l4.6,0.9l0.4,0.6l-0.7,1.9c1.3-1.4,2.8-2.5,4.6-3.3l-1.4,0l-0.8-1.1l0.7-4.5l-1.3,3.7l-0.8-1.1l3.7-8.3l7,6.1l-0.3,1.6
	l-2.8-2.9l2.6,3.9l-0.1,0.7l-1.7,0.8c0.2,0,0.4,0,0.6,0c1.7,0,3.3,0.3,4.8,0.9l-0.9-0.9l0.2-1.3l3.7-2.6l-3.5,1.7l0.2-1.3l8.5-3.3
	l0.6,9.2l-1.3,0.9l0-4l-0.9,4.6l-0.6,0.4l-1.6-0.6c1.2,1.2,2.3,2.6,3,4.2l0-1.1l1.1-0.8l4.5,0.7l-3.7-1.3l1.1-0.8l8.3,3.7l-6.1,7
	l-1.6-0.3l2.9-2.8L904.3,111z"/>
    
    <path {{SVG_FILL_3_ID}} class="{{SVG_PATH_3_CLASS}} bklyn-section-separator-path-fill" d="M1150.7,278.2L1150.7,278.2L1150.7,278.2l13.7,6.2l-10.3-7l12-3.1l-15,1.1l0,0l0,0l-0.1,0l-2.2-0.4l4.2-7
	l4.9,2.2l-4.4-3l2.6-4.4l-3.4,3.9l-6.7-4.5l1.8-1.3l0.1,0l0,0l0,0l14-5.3l-12.2,2.3l6.3-10.7l-9.8,11.4l0,0l0,0l-0.1,0.1l-1.8,1.3
	l-2-7.9l5-1.9l-5.2,1l-1.3-5l0.4,5.1l-7.9,1.5l0.4-2.2l0.1-0.1l0,0l0,0l6.2-13.7l-7,10.3l-3.1-12l1.1,15l0,0l0,0l0,0.1l-0.4,2.2
	l-7-4.2l2.2-4.9l-3,4.4l-4.4-2.6l3.9,3.4l-4.5,6.7l-1.3-1.8l0-0.1l0,0l0,0l-5.3-14l2.3,12.2l-10.7-6.3l11.4,9.8l0,0l0,0l0.1,0.1
	l1.3,1.8l-7.9,2l-1.9-5l1,5.2l-5,1.3l5.1-0.4l1.5,7.9l-2.2-0.4l-0.1-0.1l0,0l0,0l-13.7-6.2l10.3,7l-12,3.1l15-1.1l0,0l0,0l0.1,0
	l2.2,0.4l-4.2,7l-4.9-2.2l4.4,3l-2.6,4.4l3.4-3.9l6.7,4.5l-1.8,1.3l-0.1,0l0,0l0,0l-14,5.3l12.2-2.3l-6.3,10.7l9.8-11.4l0,0l0,0
	l0.1-0.1l1.8-1.3l2,7.9l-5,1.9l5.2-1l1.3,5l-0.4-5.1l7.9-1.5l-0.4,2.2l-0.1,0.1l0,0l0,0l-6.2,13.7l7-10.3l3.1,12l-1.1-15l0,0l0,0
	l0-0.1l0.4-2.2l7,4.2l-2.2,4.9l3-4.4l4.4,2.6l-3.9-3.4l4.5-6.7l1.3,1.8l0,0.1l0,0l0,0l5.3,14l-2.3-12.2l10.7,6.3l-11.4-9.8l0,0l0,0
	l-0.1-0.1l-1.3-1.8l7.9-2l1.9,5l-1-5.2l5-1.3l-5.1,0.4l-1.5-7.9l2.2,0.4L1150.7,278.2z M1143.3,274l-0.7-0.1l-0.7-1.4
	c0,0.1,0,0.2,0,0.2c0,1.6-0.3,3.2-0.8,4.6l0.7-0.7l1.3,0.2l2.6,3.7l-1.7-3.5l1.3,0.2l3.3,8.5l-9.2,0.6l-0.9-1.3l4,0l-4.6-0.9
	l-0.4-0.6l0.5-1.3c-1.1,1.1-2.4,2.1-3.9,2.8l0.9,0l0.8,1.1l-0.7,4.5l1.3-3.7l0.8,1.1l-3.7,8.3l-7-6.1l0.3-1.6l2.8,2.9l-2.6-3.9
	l0.1-0.7l1.4-0.7c0,0,0,0-0.1,0c-1.7,0-3.3-0.3-4.8-0.9l0.8,0.8l-0.2,1.3l-3.7,2.6l3.5-1.7l-0.2,1.3l-8.5,3.3l-0.6-9.2l1.3-0.9l0,4
	l0.9-4.6l0.6-0.4l1.6,0.6c-1.3-1.2-2.3-2.7-3-4.4l0,1.3l-1.1,0.8l-4.5-0.7l3.7,1.3l-1.1,0.8l-8.3-3.7l6.1-7l1.6,0.3l-2.9,2.8
	l3.9-2.6l0.7,0.1l0.8,1.7c0-0.1,0-0.3,0-0.4c0-1.8,0.4-3.5,1-5.1l-1,1l-1.3-0.2l-2.6-3.7l1.7,3.5l-1.3-0.2l-3.3-8.5l9.2-0.6l0.9,1.3
	l-4,0l4.6,0.9l0.4,0.6l-0.7,1.9c1.3-1.4,2.8-2.5,4.6-3.3l-1.4,0l-0.8-1.1l0.7-4.5l-1.3,3.7l-0.8-1.1l3.7-8.3l7,6.1l-0.3,1.6
	l-2.8-2.9l2.6,3.9l-0.1,0.7l-1.7,0.8c0.2,0,0.4,0,0.6,0c1.7,0,3.3,0.3,4.8,0.9l-0.9-0.9l0.2-1.3l3.7-2.6l-3.5,1.7l0.2-1.3l8.5-3.3
	l0.6,9.2l-1.3,0.9l0-4l-0.9,4.6l-0.6,0.4l-1.6-0.6c1.2,1.2,2.3,2.6,3,4.2l0-1.1l1.1-0.8l4.5,0.7l-3.7-1.3l1.1-0.8l8.3,3.7l-6.1,7
	l-1.6-0.3l2.9-2.8L1143.3,274z"/>

    <path {{SVG_FILL_3_ID}} class="{{SVG_PATH_3_CLASS}} bklyn-section-separator-path-fill" d="M1511.7,315.2L1511.7,315.2L1511.7,315.2l13.7,6.2l-10.3-7l12-3.1l-15,1.1l0,0l0,0l-0.1,0l-2.2-0.4l4.2-7
	l4.9,2.2l-4.4-3l2.6-4.4l-3.4,3.9l-6.7-4.5l1.8-1.3l0.1,0l0,0l0,0l14-5.3l-12.2,2.3l6.3-10.7l-9.8,11.4l0,0l0,0l-0.1,0.1l-1.8,1.3
	l-2-7.9l5-1.9l-5.2,1l-1.3-5l0.4,5.1l-7.9,1.5l0.4-2.2l0.1-0.1l0,0l0,0l6.2-13.7l-7,10.3l-3.1-12l1.1,15l0,0l0,0l0,0.1l-0.4,2.2
	l-7-4.2l2.2-4.9l-3,4.4l-4.4-2.6l3.9,3.4l-4.5,6.7l-1.3-1.8l0-0.1l0,0l0,0l-5.3-14l2.3,12.2l-10.7-6.3l11.4,9.8l0,0l0,0l0.1,0.1
	l1.3,1.8l-7.9,2l-1.9-5l1,5.2l-5,1.3l5.1-0.4l1.5,7.9l-2.2-0.4l-0.1-0.1l0,0l0,0l-13.7-6.2l10.3,7l-12,3.1l15-1.1l0,0l0,0l0.1,0
	l2.2,0.4l-4.2,7l-4.9-2.2l4.4,3l-2.6,4.4l3.4-3.9l6.7,4.5l-1.8,1.3l-0.1,0l0,0l0,0l-14,5.3l12.2-2.3l-6.3,10.7l9.8-11.4l0,0l0,0
	l0.1-0.1l1.8-1.3l2,7.9l-5,1.9l5.2-1l1.3,5l-0.4-5.1l7.9-1.5l-0.4,2.2l-0.1,0.1l0,0l0,0l-6.2,13.7l7-10.3l3.1,12l-1.1-15l0,0l0,0
	l0-0.1l0.4-2.2l7,4.2l-2.2,4.9l3-4.4l4.4,2.6l-3.9-3.4l4.5-6.7l1.3,1.8l0,0.1l0,0l0,0l5.3,14l-2.3-12.2l10.7,6.3l-11.4-9.8l0,0l0,0
	l-0.1-0.1l-1.3-1.8l7.9-2l1.9,5l-1-5.2l5-1.3l-5.1,0.4l-1.5-7.9l2.2,0.4L1511.7,315.2z M1504.3,311l-0.7-0.1l-0.7-1.4
	c0,0.1,0,0.2,0,0.2c0,1.6-0.3,3.2-0.8,4.6l0.7-0.7l1.3,0.2l2.6,3.7l-1.7-3.5l1.3,0.2l3.3,8.5l-9.2,0.6l-0.9-1.3l4,0l-4.6-0.9
	l-0.4-0.6l0.5-1.3c-1.1,1.1-2.4,2.1-3.9,2.8l0.9,0l0.8,1.1l-0.7,4.5l1.3-3.7l0.8,1.1l-3.7,8.3l-7-6.1l0.3-1.6l2.8,2.9l-2.6-3.9
	l0.1-0.7l1.4-0.7c0,0,0,0-0.1,0c-1.7,0-3.3-0.3-4.8-0.9l0.8,0.8l-0.2,1.3l-3.7,2.6l3.5-1.7l-0.2,1.3l-8.5,3.3l-0.6-9.2l1.3-0.9l0,4
	l0.9-4.6l0.6-0.4l1.6,0.6c-1.3-1.2-2.3-2.7-3-4.4l0,1.3l-1.1,0.8l-4.5-0.7l3.7,1.3l-1.1,0.8l-8.3-3.7l6.1-7l1.6,0.3l-2.9,2.8
	l3.9-2.6l0.7,0.1l0.8,1.7c0-0.1,0-0.3,0-0.4c0-1.8,0.4-3.5,1-5.1l-1,1l-1.3-0.2l-2.6-3.7l1.7,3.5l-1.3-0.2l-3.3-8.5l9.2-0.6l0.9,1.3
	l-4,0l4.6,0.9l0.4,0.6l-0.7,1.9c1.3-1.4,2.8-2.5,4.6-3.3l-1.4,0l-0.8-1.1l0.7-4.5l-1.3,3.7l-0.8-1.1l3.7-8.3l7,6.1l-0.3,1.6
	l-2.8-2.9l2.6,3.9l-0.1,0.7l-1.7,0.8c0.2,0,0.4,0,0.6,0c1.7,0,3.3,0.3,4.8,0.9l-0.9-0.9l0.2-1.3l3.7-2.6l-3.5,1.7l0.2-1.3l8.5-3.3
	l0.6,9.2l-1.3,0.9l0-4l-0.9,4.6l-0.6,0.4l-1.6-0.6c1.2,1.2,2.3,2.6,3,4.2l0-1.1l1.1-0.8l4.5,0.7l-3.7-1.3l1.1-0.8l8.3,3.7l-6.1,7
	l-1.6-0.3l2.9-2.8L1504.3,311z"/>
    
    <path {{SVG_FILL_3_ID}} class="{{SVG_PATH_3_CLASS}} bklyn-section-separator-path-fill" d="M1751.7,211.2L1751.7,211.2L1751.7,211.2l13.7,6.2l-10.3-7l12-3.1l-15,1.1l0,0l0,0l-0.1,0l-2.2-0.4l4.2-7
	l4.9,2.2l-4.4-3l2.6-4.4l-3.4,3.9l-6.7-4.5l1.8-1.3l0.1,0l0,0l0,0l14-5.3l-12.2,2.3l6.3-10.7l-9.8,11.4l0,0l0,0l-0.1,0.1l-1.8,1.3
	l-2-7.9l5-1.9l-5.2,1l-1.3-5l0.4,5.1l-7.9,1.5l0.4-2.2l0.1-0.1l0,0l0,0l6.2-13.7l-7,10.3l-3.1-12l1.1,15l0,0l0,0l0,0.1l-0.4,2.2
	l-7-4.2l2.2-4.9l-3,4.4l-4.4-2.6l3.9,3.4l-4.5,6.7l-1.3-1.8l0-0.1l0,0l0,0l-5.3-14l2.3,12.2l-10.7-6.3l11.4,9.8l0,0l0,0l0.1,0.1
	l1.3,1.8l-7.9,2l-1.9-5l1,5.2l-5,1.3l5.1-0.4l1.5,7.9l-2.2-0.4l-0.1-0.1l0,0l0,0l-13.7-6.2l10.3,7l-12,3.1l15-1.1l0,0l0,0l0.1,0
	l2.2,0.4l-4.2,7l-4.9-2.2l4.4,3l-2.6,4.4l3.4-3.9l6.7,4.5l-1.8,1.3l-0.1,0l0,0l0,0l-14,5.3l12.2-2.3l-6.3,10.7l9.8-11.4l0,0l0,0
	l0.1-0.1l1.8-1.3l2,7.9l-5,1.9l5.2-1l1.3,5l-0.4-5.1l7.9-1.5l-0.4,2.2l-0.1,0.1l0,0l0,0l-6.2,13.7l7-10.3l3.1,12l-1.1-15l0,0l0,0
	l0-0.1l0.4-2.2l7,4.2l-2.2,4.9l3-4.4l4.4,2.6l-3.9-3.4l4.5-6.7l1.3,1.8l0,0.1l0,0l0,0l5.3,14l-2.3-12.2l10.7,6.3l-11.4-9.8l0,0l0,0
	l-0.1-0.1l-1.3-1.8l7.9-2l1.9,5l-1-5.2l5-1.3l-5.1,0.4l-1.5-7.9l2.2,0.4L1751.7,211.2z M1744.3,207l-0.7-0.1l-0.7-1.4
	c0,0.1,0,0.2,0,0.2c0,1.6-0.3,3.2-0.8,4.6l0.7-0.7l1.3,0.2l2.6,3.7l-1.7-3.5l1.3,0.2l3.3,8.5l-9.2,0.6l-0.9-1.3l4,0l-4.6-0.9
	l-0.4-0.6l0.5-1.3c-1.1,1.1-2.4,2.1-3.9,2.8l0.9,0l0.8,1.1l-0.7,4.5l1.3-3.7l0.8,1.1l-3.7,8.3l-7-6.1l0.3-1.6l2.8,2.9l-2.6-3.9
	l0.1-0.7l1.4-0.7c0,0,0,0-0.1,0c-1.7,0-3.3-0.3-4.8-0.9l0.8,0.8l-0.2,1.3l-3.7,2.6l3.5-1.7l-0.2,1.3l-8.5,3.3l-0.6-9.2l1.3-0.9l0,4
	l0.9-4.6l0.6-0.4l1.6,0.6c-1.3-1.2-2.3-2.7-3-4.4l0,1.3l-1.1,0.8l-4.5-0.7l3.7,1.3l-1.1,0.8l-8.3-3.7l6.1-7l1.6,0.3l-2.9,2.8
	l3.9-2.6l0.7,0.1l0.8,1.7c0-0.1,0-0.3,0-0.4c0-1.8,0.4-3.5,1-5.1l-1,1l-1.3-0.2l-2.6-3.7l1.7,3.5l-1.3-0.2l-3.3-8.5l9.2-0.6l0.9,1.3
	l-4,0l4.6,0.9l0.4,0.6l-0.7,1.9c1.3-1.4,2.8-2.5,4.6-3.3l-1.4,0l-0.8-1.1l0.7-4.5l-1.3,3.7l-0.8-1.1l3.7-8.3l7,6.1l-0.3,1.6
	l-2.8-2.9l2.6,3.9l-0.1,0.7l-1.7,0.8c0.2,0,0.4,0,0.6,0c1.7,0,3.3,0.3,4.8,0.9l-0.9-0.9l0.2-1.3l3.7-2.6l-3.5,1.7l0.2-1.3l8.5-3.3
	l0.6,9.2l-1.3,0.9l0-4l-0.9,4.6l-0.6,0.4l-1.6-0.6c1.2,1.2,2.3,2.6,3,4.2l0-1.1l1.1-0.8l4.5,0.7l-3.7-1.3l1.1-0.8l8.3,3.7l-6.1,7
	l-1.6-0.3l2.9-2.8L1744.3,207z"/>

	<path {{SVG_FILL_1_ID}} class="{{SVG_PATH_1_CLASS}} bklyn-section-separator-path-fill" d="M1477,397.5c-284.1,17.8-444.4-34.7-573.3-94.9l3-18.6l21.3,3.4l0.9-5.7l-22.5-3.6l-8-11l16.9,2.7l0.9-5.7l-22.5-3.6
		l-9.8-13.6c1.4-1.2,2.7-2.6,3.8-4.3c0.2-0.3,0.4-0.6,0.5-1l16,2.6l13.4,18.5l4.7-3.4l-10-13.8l13.4,2.2l13.4,18.5l4.7-3.4
		L931,245.4l17.5-12.6l-3.4-4.7l-18.5,13.4l-13.4-2.2l13.8-10l-3.4-4.7L905.2,238l-15.1-2.4c0.3-2.7,0-5.4-0.9-7.9l11.9-8.6
		l22.5,3.6l0.9-5.7l-16.9-2.7l11-8l22.5,3.6l0.9-5.7l-21.3-3.4l3.4-21.3l-5.7-0.9l-3.6,22.5l-11,8l2.7-16.9l-5.7-0.9l-3.6,22.5
		l-11.4,8.2c-1.1-1.3-2.5-2.4-4-3.4c-1-0.6-2-1.1-3.1-1.5l2.2-13.9l18.5-13.4l-3.4-4.7l-13.8,10l2.2-13.4l18.5-13.4l-3.4-4.7
		l-17.5,12.6L869.6,159l-4.7,3.4l13.4,18.5l-2.2,13.4l-10-13.8l-4.7,3.4l13.4,18.5l-2.2,13.8c-2.8,0-5.6,0.8-8.1,2.1l-8.6-11.9
		l3.6-22.5l-5.7-0.9l-2.7,16.9l-8-11l3.6-22.5l-5.7-0.9l-3.4,21.3l-21.3-3.4l-0.9,5.7l22.5,3.6l8,11l-16.9-2.7l-0.9,5.7l22.5,3.6
		l8.8,12.2c-0.5,0.6-1.1,1.3-1.5,2.1c-0.9,1.4-1.5,3-2,4.5l-15.9-2.6l-13.4-18.5l-4.7,3.4l10,13.8l-13.4-2.2l-13.4-18.5l-4.7,3.4
		l12.6,17.5l-17.5,12.6l3.4,4.7l18.5-13.4l13.4,2.2l-13.8,10l3.4,4.7l18.5-13.4l16.4,2.6c0.2,2.1,0.8,4.2,1.8,6.1l-14.1,10.2
		l-22.5-3.6l-0.9,5.7l16.9,2.7l-10.9,7.9C701.7,201.4,590.7,144.6,390,163.5c-24.2,2.3-46.6,6.7-67.9,12.4l-9.2-12.7l12.9-9.3
		l-2.5-3.4l-13.6,9.8l-9.9-1.6l10.2-7.3l-2.5-3.4l-13.6,9.8l-11.1-1.8c0.2-2,0-3.9-0.6-5.8l8.8-6.3l16.6,2.7l0.7-4.2l-12.4-2
		l8.1-5.8l16.6,2.7l0.7-4.2l-15.7-2.5l2.5-15.7l-4.2-0.7l-2.7,16.6l-8.1,5.8l2-12.4l-4.2-0.7l-2.7,16.6l-8.4,6.1
		c-0.8-0.9-1.8-1.8-2.9-2.5c-0.7-0.4-1.5-0.8-2.3-1.1l1.6-10.2l13.6-9.8l-2.5-3.4l-10.2,7.3l1.6-9.9l13.6-9.8l-2.5-3.4l-12.9,9.3
		l-9.3-12.9l-3.4,2.5l9.8,13.6l-1.6,9.9l-7.3-10.2l-3.4,2.5l9.8,13.6l-1.6,10.2c-2.1,0-4.1,0.6-6,1.6l-6.3-8.7l2.7-16.6l-4.2-0.7
		l-2,12.4l-5.8-8.1l2.7-16.6l-4.2-0.7l-2.5,15.7l-15.7-2.5l-0.7,4.2l16.6,2.7l5.8,8.1l-12.4-2l-0.7,4.2l16.6,2.7l6.5,9
		c-0.4,0.5-0.8,1-1.1,1.5c-0.7,1.1-1.1,2.2-1.4,3.3l-11.7-1.9l-9.8-13.6l-3.4,2.5l7.3,10.2l-9.9-1.6l-9.8-13.6l-3.4,2.5l9.3,12.9
		l-12.9,9.3l2.5,3.4l13.6-9.8l9.9,1.6l-10.2,7.3l2.5,3.4l13.6-9.8l12,1.9c0.2,1.6,0.6,3.1,1.3,4.5l-10.4,7.5l-16.6-2.7l-0.7,4.2
		l12.4,2l-8.1,5.8l-16.6-2.7l-0.7,4.2l15.7,2.5l-2.5,15.7l4.2,0.7l2.7-16.6l8.1-5.8l-2,12.4l4.2,0.7l2.7-16.6l10.5-7.6
		c0.6,0.5,1.1,1,1.8,1.4c0.6,0.3,1.2,0.6,1.7,0.9l-2.1,13.1l-13.6,9.8l2.5,3.4l10.2-7.3l-1.6,9.9l-4.3,3.1
		c-79,31.3-150.7,71.3-256.2,71.3v192.1h1920c0-64,0-128,0-192.1C1741.1,365.3,1583,390.8,1477,397.5z M265.4,194.6l1.4-8.7l4.6,6.4
		C269.4,193.1,267.4,193.8,265.4,194.6z M279.7,189.3c-1.4,0.5-2.8,1-4.1,1.5l-7.8-10.8l2.1-12.8c1.5,0,2.9-0.2,4.3-0.6l7.6,10.5
		L279.7,189.3z M284.2,187.7l0.9-5.8l3.2,4.4C287,186.7,285.6,187.2,284.2,187.7z M293,184.7l-4-5.5l12.4,2l0.7-4.2l-16.6-2.7
		l-7.2-10c1.1-0.9,2-1.9,2.8-3.2c0.1-0.2,0.3-0.5,0.4-0.7l11.8,1.9L303,176l3.4-2.5l-7.3-10.2l9.9,1.6l8.8,12.2
		C309.3,179.4,301.1,182,293,184.7z M534.5,307.2l-30.8-13.8l0,0l0,0l-0.3-0.1l-4.9-0.9l3.4,17.7l11.5-0.8l-11.2,2.8l2.2,11.7
		l-4.3-11.2l-17.8,4.5l2.8,4.1l0.2,0.2l0,0l0,0l25.5,22L487,329.3l5.1,27.5l-12-31.5l0,0l0,0l-0.1-0.3l-2.8-4l-10.2,14.9l8.7,7.6
		l-9.9-5.9l-6.7,9.8l4.9-10.9l-15.8-9.4l-0.9,4.9l0,0.3l0,0l0,0l2.5,33.6l-7-27.1l-15.8,23l13.8-30.8l0,0l0,0l0.1-0.3l0.9-4.9
		l-17.7,3.4l0.8,11.5l-2.8-11.2l-11.7,2.2l11.2-4.3l-4.5-17.8l-4,2.8l-0.2,0.2l0,0l0,0l-22,25.5l14.2-24.1l-27.5,5.1l31.5-12l0,0
		l0,0l0.3-0.1l4-2.8l-14.9-10.1l-7.6,8.7l5.9-9.9l-9.8-6.7l10.9,4.9l9.4-15.8l-4.9-0.9l-0.3,0l0,0l0,0l-33.6,2.5l27.1-7l-23-15.8
		l30.8,13.8l0,0l0,0l0.3,0.1l4.9,0.9l-3.4-17.7l-11.5,0.8l11.2-2.8l-2.2-11.7l4.3,11.2l17.8-4.5l-2.8-4l-0.2-0.2l0,0l0,0l-25.5-22
		l24.1,14.2l-5.1-27.5l12,31.5l0,0l0,0l0.1,0.3l2.8,4l10.1-14.9l-8.7-7.6l9.9,5.9l6.7-9.8l-4.9,10.9l15.8,9.4l0.9-4.9l0-0.3l0,0l0,0
		l-2.5-33.6l7,27.1l15.8-23l-13.8,30.8l0,0l0,0l-0.1,0.3l-0.9,4.9l17.7-3.4l-0.8-11.5l2.8,11.2l11.7-2.2l-11.2,4.3l4.5,17.8l4.1-2.8
		l0.2-0.2l0,0l0,0l22-25.5L502,247.3l27.5-5.1l-31.5,12l0,0l0,0l-0.3,0.1l-4,2.8l14.9,10.2l7.6-8.7l-5.9,9.9l9.8,6.7l-10.9-4.9
		l-9.4,15.8l4.9,0.9l0.3,0l0,0l0,0l33.6-2.5l-27.1,7L534.5,307.2z M643.6,259.2l-2.4,1.7l-6.8-9.4l-6.8-1.1l5.1,7l-2.4,1.7l-6.8-9.4
		l-8.2-1.3c-0.1,0.2-0.2,0.3-0.3,0.5c-0.5,0.9-1.2,1.6-1.9,2.2l5,6.9l11.5,1.8l-0.5,2.9l-8.6-1.4l4,5.6l11.5,1.8l-0.5,2.9l-10.8-1.7
		l-1.7,10.8l-2.9-0.5l1.8-11.5l-4-5.6l-1.4,8.6l-2.9-0.5l1.8-11.5l-5.2-7.2c-1,0.3-2,0.5-3,0.4l-1.4,8.9l6.8,9.4l-2.4,1.7l-5.1-7
		l-1.1,6.8l6.8,9.4l-2.4,1.7l-6.4-8.9l-8.9,6.4l-1.7-2.4l9.4-6.8l1.1-6.8l-7,5.1l-1.7-2.4l9.4-6.8l1.5-9c-0.4-0.2-0.8-0.4-1.2-0.6
		c-0.5-0.3-0.9-0.6-1.2-0.9l-7.3,5.2l-1.8,11.5l-2.9-0.5l1.4-8.6l-5.6,4l-1.8,11.5l-2.9-0.5l1.7-10.8l-10.8-1.7l0.5-2.9l11.5,1.8
		l5.6-4l-8.6-1.4l0.5-2.9l11.5,1.8l7.2-5.2c-0.5-1-0.8-2-0.9-3.1l-8.3-1.3l-9.4,6.8l-1.7-2.4l7-5.1l-6.8-1.1l-9.4,6.8l-1.7-2.4
		l8.9-6.4l-6.4-8.9l2.4-1.7l6.8,9.4l6.8,1.1l-5.1-7l2.4-1.7l6.8,9.4l8.1,1.3c0.2-0.8,0.5-1.6,1-2.3c0.2-0.4,0.5-0.7,0.8-1.1
		l-4.5-6.2l-11.5-1.8l0.5-2.9l8.6,1.4l-4-5.6l-11.5-1.8l0.5-2.9l10.8,1.7l1.7-10.8l2.9,0.5l-1.8,11.5l4,5.6l1.4-8.6l2.9,0.5
		l-1.8,11.5l4.4,6c1.3-0.7,2.7-1.1,4.1-1.1l1.1-7l-6.8-9.4l2.4-1.7l5.1,7l1.1-6.8l-6.8-9.4l2.4-1.7l6.4,8.9l8.9-6.4l1.7,2.4
		l-9.4,6.8l-1.1,6.8l7-5.1l1.7,2.4l-9.4,6.8l-1.1,7.1c0.5,0.2,1.1,0.5,1.6,0.8c0.8,0.5,1.5,1.1,2,1.7l5.8-4.2l1.8-11.5l2.9,0.5
		l-1.4,8.6l5.6-4l1.8-11.5l2.9,0.5l-1.7,10.8l10.8,1.7l-0.5,2.9l-11.5-1.8l-5.6,4l8.6,1.4l-0.5,2.9L622,237l-6.1,4.4
		c0.5,1.3,0.6,2.6,0.4,4l7.7,1.2l9.4-6.8l1.7,2.4l-7,5.1l6.8,1.1l9.4-6.8l1.7,2.4l-8.9,6.4L643.6,259.2z M838.9,270.9
		c-2.2-1.1-4.5-2.3-6.7-3.4l8.2-5.9L838.9,270.9z M860.9,281.9c-1.6-0.8-3.2-1.6-4.7-2.4l5.8-4.2L860.9,281.9z M863.3,267.3
		l-12.9,9.3c-2-1-4-2-6.1-3l2.7-16.8l14.3-10.3c0.8,0.7,1.6,1.3,2.5,1.8c0.8,0.5,1.6,0.9,2.4,1.2L863.3,267.3z M898.3,300
		c-10.6-5-21.1-10.1-31.4-15.2l1.4-8.5l10,13.8l4.7-3.4l-13.4-18.5l2.8-17.4c2,0.1,4-0.2,5.8-0.8l10.3,14.2l-3.6,22.5l5.7,0.9
		l2.7-16.9l8,11L898.3,300z M1873.6,392.2l-2.4,1.7l-6.8-9.4l-6.8-1.1l5.1,7l-2.4,1.7l-6.8-9.4l-8.2-1.3c-0.1,0.2-0.2,0.3-0.3,0.5
		c-0.5,0.9-1.2,1.6-1.9,2.2l5,6.9l11.5,1.8l-0.5,2.9l-8.6-1.4l4,5.6l11.5,1.8l-0.5,2.9l-10.8-1.7l-1.7,10.8l-2.9-0.5l1.8-11.5
		l-4-5.6l-1.4,8.6l-2.9-0.5l1.8-11.5l-5.2-7.2c-1,0.3-2,0.5-3,0.4l-1.4,8.9l6.8,9.4l-2.4,1.7l-5.1-7l-1.1,6.8l6.8,9.4l-2.4,1.7
		l-6.4-8.9l-8.9,6.4l-1.7-2.4l9.4-6.8l1.1-6.8l-7,5.1l-1.7-2.4l9.4-6.8l1.5-9c-0.4-0.2-0.8-0.4-1.2-0.6c-0.5-0.3-0.9-0.6-1.2-0.9
		l-7.3,5.2l-1.8,11.5l-2.9-0.5l1.4-8.6l-5.6,4l-1.8,11.5l-2.9-0.5l1.7-10.8l-10.8-1.7l0.5-2.9l11.5,1.8l5.6-4l-8.6-1.4l0.5-2.9
		l11.5,1.8l7.2-5.2c-0.5-1-0.8-2-0.9-3.1l-8.3-1.3l-9.4,6.8l-1.7-2.4l7-5.1l-6.8-1.1l-9.4,6.8l-1.7-2.4l8.9-6.4l-6.4-8.9l2.4-1.7
		l6.8,9.4l6.8,1.1l-5.1-7l2.4-1.7l6.8,9.4l8.1,1.3c0.2-0.8,0.5-1.6,1-2.3c0.2-0.4,0.5-0.7,0.8-1.1l-4.5-6.2l-11.5-1.8l0.5-2.9
		l8.6,1.4l-4-5.6l-11.5-1.8l0.5-2.9l10.8,1.7l1.7-10.8l2.9,0.5l-1.8,11.5l4,5.6l1.4-8.6l2.9,0.5l-1.8,11.5l4.4,6
		c1.3-0.7,2.7-1.1,4.1-1.1l1.1-7l-6.8-9.4l2.4-1.7l5.1,7l1.1-6.8l-6.8-9.4l2.4-1.7l6.4,8.9l8.9-6.4l1.7,2.4l-9.4,6.8l-1.1,6.8l7-5.1
		l1.7,2.4l-9.4,6.8l-1.1,7.1c0.5,0.2,1.1,0.5,1.6,0.8c0.8,0.5,1.5,1.1,2,1.7l5.8-4.2l1.8-11.5l2.9,0.5l-1.4,8.6l5.6-4l1.8-11.5
		l2.9,0.5l-1.7,10.8l10.8,1.7l-0.5,2.9l-11.5-1.8l-5.6,4l8.6,1.4l-0.5,2.9L1852,370l-6.1,4.4c0.5,1.3,0.6,2.6,0.4,4l7.7,1.2l9.4-6.8
		l1.7,2.4l-7,5.1l6.8,1.1l9.4-6.8l1.7,2.4l-8.9,6.4L1873.6,392.2z"/>
    
	<path {{SVG_FILL_3_ID}} class="{{SVG_PATH_3_CLASS}} bklyn-section-separator-path-fill" d="M493.1,284.9l13.7-15.7l-18.7-8.3l-2.5,1.8l8.2,2.9l-10.1-1.7l-2.4,1.7l0,2.4c-1.6-3.5-3.9-6.7-6.7-9.3l3.6,1.3l1.4-0.9
		l1.9-10.3l-0.1,9l3-2.1L483,235l-19.1,7.4l-0.5,3l7.9-3.8l-8.3,6l-0.5,2.9l2,2c-3.3-1.3-7-2-10.8-2c-0.4,0-0.9,0-1.3,0l3.9-1.8
		l0.3-1.6l-5.9-8.7l6.3,6.4l0.6-3.6l-15.7-13.6l-8.3,18.7l1.8,2.5l2.9-8.2l-1.7,10.1l1.7,2.4l3.2,0c-3.9,1.7-7.4,4.2-10.3,7.3
		l1.5-4.2l-0.9-1.4l-10.3-1.9l9,0.1l-2.1-3l-20.7,1.4l7.4,19.1l3,0.5l-3.8-7.9l6,8.3l2.9,0.5l2.3-2.3c-1.4,3.5-2.2,7.4-2.2,11.4
		c0,0.3,0,0.7,0,1l-1.8-3.9l-1.6-0.3l-8.7,5.9l6.4-6.3l-3.6-0.6l-13.6,15.7l18.7,8.3l2.5-1.8l-8.2-2.9l10.1,1.7l2.4-1.7l0-2.9
		c1.6,3.7,3.9,7,6.8,9.8l-3.6-1.3l-1.4,0.9l-1.9,10.3l0.1-9l-3,2.1l1.4,20.7l19.1-7.4l0.5-3l-7.9,3.8l8.3-6l0.5-2.9l-1.7-1.7
		c3.4,1.3,7,2,10.9,2c0.1,0,0.1,0,0.2,0l-3.1,1.5l-0.3,1.6l5.9,8.7l-6.3-6.4l-0.6,3.6l15.7,13.6l8.3-18.7l-1.8-2.5l-2.9,8.2
		l1.7-10.1l-1.7-2.4l-2.1,0c3.3-1.5,6.3-3.6,8.8-6.2l-1.1,3l0.9,1.4l10.3,1.9l-9-0.1l2.1,3l20.7-1.4l-7.4-19.1l-3-0.5l3.8,7.9
		l-6-8.3l-2.9-0.5l-1.5,1.5c1.1-3.2,1.8-6.7,1.8-10.3c0-0.2,0-0.4,0-0.5l1.5,3.1l1.6,0.3l8.7-5.9l-6.4,6.3L493.1,284.9z"/>
    
</svg>