<svg id="{{SVG_ID}}" xmlns="http://www.w3.org/2000/svg" viewBox="0 0 100 100" preserveAspectRatio="none">
    {{SVG_STYLE_ID}}
    {{SVG_DEF_ID}}
    <path {{SVG_FILL_1_ID}} class="{{SVG_PATH_1_CLASS}} bklyn-section-separator-path-fill" d="M0 0 Q 2.5 40 5 0 Q 7.5 40 10 0 Q 12.5 40 15 0 Q 17.5 40 20 0 Q 22.5 40 25 0 Q 27.5 40 30 0 Q 32.5 40 35 0 Q 37.5 40 40 0 Q 42.5 40 45 0 Q 47.5 40 50 0 Q 52.5 40 55 0 Q 57.5 40 60 0 Q 62.5 40 65 0 Q 67.5 40 70 0 Q 72.5 40 75 0 Q 77.5 40 80 0 Q 82.5 40 85 0 Q 87.5 40 90 0 Q 92.5 40 95 0 Q 97.5 40 100 0 Z"></path>
</svg>