<svg id="{{SVG_ID}}" xmlns="http://www.w3.org/2000/svg" viewBox="0 0 1920 435" preserveAspectRatio="none">
    {{SVG_STYLE_ID}}
    {{SVG_DEF_ID}}
	<path {{SVG_FILL_1_ID}} class="{{SVG_PATH_1_CLASS}} bklyn-section-separator-path-fill" d="M1920,435H0v-183c46.8,50.3,119,110.4,216,126c117.4,18.9,181.9-41.8,315-63c184.7-29.5,213.7,63,387,63 c313.9,0,410.4-305.4,810-351c82.5-9.4,150.7-4.7,192,0C1920,163.1,1920,299.1,1920,435z"/>
	<path {{SVG_FILL_2_ID}} class="{{SVG_PATH_2_CLASS}} bklyn-section-separator-path-fill" d="M1920,435H0V269.4c46.8,41.9,119,105.1,216,118.1c117.4,15.8,181.9-34.9,315-52.6c184.7-24.6,213.7,52.6,387,52.6 c313.9,0,410.4-295.8,810-333.9c82.5-7.9,150.7-3.9,192,0C1920,167.1,1920,321.6,1920,435z"/>
	<path {{SVG_FILL_3_ID}} class="{{SVG_PATH_3_CLASS}} bklyn-section-separator-path-fill" d="M1920,435H0V282.4c46.8,41.9,119,92.1,216,105.1c117.4,15.8,181.9-63.9,315-81.6 c184.7-24.6,213.7,81.6,387,81.6c313.9,0,410.4-254.8,810-292.9c82.5-7.9,150.7-3.9,192,0C1920,208.1,1920,321.6,1920,435z"/>
</svg>